<svg width="32" height="33" viewBox="0 0 32 33" fill="none" xmlns="http://www.w3.org/2000/svg">
<path d="M13.0781 19.1016C13.0781 20.2734 12.3516 20.8594 10.8984 20.8594H7.73438V17.2031H10.9688C12.375 17.2031 13.0781 17.8359 13.0781 19.1016ZM12.5859 13.3359C12.5859 14.4141 11.9766 14.9531 10.7578 14.9531H7.73438V11.7891H10.5469C11.9062 11.7891 12.5859 12.3047 12.5859 13.3359ZM21.8672 14.9531C23.1797 14.9531 23.9062 15.6562 24.0469 17.0625H19.6172C19.6641 16.4062 19.875 15.8906 20.25 15.5156C20.6719 15.1406 21.2109 14.9531 21.8672 14.9531ZM31.5 4.125V28.875C31.5 29.8125 31.1719 30.6094 30.5156 31.2656C29.8594 31.9219 29.0625 32.25 28.125 32.25H3.375C2.4375 32.25 1.64062 31.9219 0.984375 31.2656C0.328125 30.6094 0 29.8125 0 28.875V4.125C0 3.1875 0.328125 2.39062 0.984375 1.73438C1.64062 1.07813 2.4375 0.75 3.375 0.75H28.125C29.0625 0.75 29.8594 1.07813 30.5156 1.73438C31.1719 2.39062 31.5 3.1875 31.5 4.125ZM19.125 11.5078H24.6094V10.1719H19.125V11.5078ZM16.1016 19.2422C16.1016 17.3203 15.2812 16.125 13.6406 15.6562C14.8594 15.0469 15.4688 14.1797 15.4688 13.0547C15.4688 10.8047 14.0156 9.67969 11.1094 9.67969H4.78125V23.1797H11.3203C12.6797 23.1797 13.8047 22.8516 14.6953 22.1953C15.6328 21.5391 16.1016 20.5547 16.1016 19.2422ZM26.7188 18.1875C26.7188 16.6875 26.2969 15.4453 25.4531 14.4609C24.6094 13.4297 23.4375 12.9141 21.9375 12.9141C20.4844 12.9141 19.2891 13.4062 18.3516 14.3906C17.4141 15.375 16.9453 16.6172 16.9453 18.1172C16.9453 18.8672 17.0625 19.5703 17.2969 20.2266C17.5312 20.8359 17.8594 21.375 18.2812 21.8438C18.7031 22.2656 19.2188 22.6172 19.8281 22.8984C20.4844 23.1328 21.1875 23.25 21.9375 23.25C24.2812 23.25 25.8281 22.1484 26.5781 19.9453H24.1875C24.0469 20.3203 23.7656 20.625 23.3438 20.8594C22.9219 21.0938 22.5 21.2109 22.0781 21.2109C20.4844 21.2109 19.6875 20.3906 19.6875 18.75H26.7188C26.7188 18.4219 26.7188 18.2344 26.7188 18.1875Z" fill="#744E99"/>
</svg>
