<svg width="130" height="36" viewBox="0 0 130 36" fill="none" xmlns="http://www.w3.org/2000/svg">
<path d="M115.102 9.8653C115.102 10.4122 114.867 10.7637 114.398 10.92C114.828 11.0762 115.043 11.4473 115.043 12.0333V12.795H114.105C114.105 12.7169 114.105 12.5997 114.105 12.4434C114.105 12.2481 114.105 12.1114 114.105 12.0333C114.105 11.9551 114.086 11.877 114.047 11.7989C114.008 11.6817 113.949 11.6036 113.871 11.5645C113.832 11.4864 113.754 11.4278 113.637 11.3887C113.52 11.3497 113.383 11.3301 113.227 11.3301H112.172V12.795H111.234V8.75201H113.52C114.574 8.75201 115.102 9.12311 115.102 9.8653ZM113.402 10.5098C113.832 10.5098 114.047 10.3536 114.047 10.0411C114.047 9.76764 113.832 9.63092 113.402 9.63092H112.172V10.5098H113.402ZM112.406 15.7833C113.5 15.7833 114.047 16.213 114.047 17.0723C114.047 17.3067 114.008 17.5215 113.93 17.7169C113.891 17.8731 113.793 18.0098 113.637 18.127C113.52 18.2051 113.383 18.2833 113.227 18.3614C113.109 18.4005 112.934 18.4395 112.699 18.4786C112.504 18.4786 112.348 18.4786 112.23 18.4786C112.113 18.4786 111.918 18.4786 111.645 18.4786C111.41 18.4786 111.254 18.4786 111.176 18.4786V19.8262H109.242L108.07 18.4786L106.84 19.8262H102.973V15.7833H106.898L108.07 17.0723L109.301 15.7833H112.406ZM106.312 18.9473L107.426 17.7755L106.371 16.6036H103.969V17.3067H106.078V18.1856H103.969V18.9473H106.312ZM110.18 19.4747V16.1934L108.715 17.7755L110.18 19.4747ZM112.406 17.5997C112.797 17.5997 112.992 17.4239 112.992 17.0723C112.992 16.7598 112.797 16.6036 112.406 16.6036H111.176V17.5997H112.406ZM110.531 9.63092H108.246V10.334H110.473V11.1544H108.246V11.9747H110.531V12.795H107.309V8.75201H110.531V9.63092ZM118.383 16.838C118.383 17.3848 118.168 17.7559 117.738 17.9512C118.129 18.1075 118.324 18.459 118.324 19.0059V19.8262H117.387V19.1231C117.387 18.9278 117.348 18.7715 117.27 18.6544C117.23 18.5372 117.152 18.459 117.035 18.42C116.918 18.3809 116.742 18.3614 116.508 18.3614H115.512L115.453 19.8262H114.516V15.7833H116.801C117.855 15.7833 118.383 16.1348 118.383 16.838ZM116.684 17.4825C117.113 17.4825 117.328 17.3262 117.328 17.0137C117.328 16.7403 117.113 16.6036 116.684 16.6036H115.512V17.4825H116.684ZM106.547 12.795H105.609V9.63092L104.203 12.795H103.324L101.918 9.63092V12.795H99.9258L99.5742 11.9161H97.5234L97.1719 12.795H96.1172L97.875 8.75201H99.2812L100.922 12.6192V8.75201H102.504L103.793 11.5059L104.965 8.75201H106.547V12.795ZM97.875 11.0958H99.2227L98.5195 9.45514L97.875 11.0958ZM125.883 20.4122C126.117 20.4122 126.469 20.4122 126.938 20.4122C127.406 20.4122 127.738 20.4122 127.934 20.4122C128.129 20.4122 128.363 20.4122 128.637 20.4122C128.949 20.3731 129.184 20.334 129.34 20.295C129.496 20.2169 129.652 20.1387 129.809 20.0606V25.334C129.809 26.1153 129.535 26.7794 128.988 27.3262C128.441 27.8731 127.777 28.1465 126.996 28.1465H98.8711C98.0898 28.1465 97.4258 27.8731 96.8789 27.3262C96.332 26.7794 96.0586 26.1153 96.0586 25.334V13.3809H97.6406C97.7188 13.1465 97.8359 12.8536 97.9922 12.502H99.1055C99.2617 12.8536 99.3984 13.1465 99.5156 13.3809H102.621V12.7364C102.66 12.8145 102.758 13.0294 102.914 13.3809H104.613C104.652 13.3028 104.691 13.2442 104.73 13.2051C104.77 13.127 104.789 13.0489 104.789 12.9708C104.828 12.8926 104.867 12.8145 104.906 12.7364V13.3809H112.875V11.9161C113.188 11.9161 113.363 11.9161 113.402 11.9161C113.402 12.3458 113.422 12.834 113.461 13.3809H117.328V12.8536C117.758 13.2051 118.344 13.3809 119.086 13.3809H120.668C120.746 13.1465 120.863 12.8536 121.02 12.502H122.133C122.25 12.7755 122.309 12.9317 122.309 12.9708C122.348 12.9708 122.367 13.0098 122.367 13.088C122.406 13.1661 122.465 13.2637 122.543 13.3809H125.59V12.0919C125.863 12.5606 126.039 12.8731 126.117 13.0294C126.234 13.1465 126.332 13.2637 126.41 13.3809H128.812V7.9903H126.469V9.10358C126.273 8.75201 126.059 8.38092 125.824 7.9903H123.305V9.22076C123.188 8.90826 123.012 8.49811 122.777 7.9903H120.902C120.785 7.9903 120.727 7.9903 120.727 7.9903H119.145C118.402 7.9903 117.797 8.16608 117.328 8.51764V7.9903H114.984V8.28326C114.906 8.2442 114.828 8.22467 114.75 8.22467C114.711 8.18561 114.633 8.16608 114.516 8.16608C114.438 8.12701 114.359 8.10748 114.281 8.10748C114.242 8.06842 114.145 8.04889 113.988 8.04889C113.871 8.00983 113.754 7.9903 113.637 7.9903C113.559 7.9903 113.402 7.9903 113.168 7.9903C112.973 7.9903 112.797 7.9903 112.641 7.9903C112.523 7.9903 112.309 7.9903 111.996 7.9903C111.684 7.9903 111.43 7.9903 111.234 7.9903H110.531H104.496C104.301 8.45905 104.066 9.04498 103.793 9.74811C103.715 9.63092 103.559 9.33795 103.324 8.8692C103.129 8.40045 103.012 8.10748 102.973 7.9903H100.277V9.22076C100.082 8.83014 99.9453 8.57623 99.8672 8.45905C99.8281 8.3028 99.7891 8.14655 99.75 7.9903H97.4062C97.3281 8.14655 97.1328 8.59576 96.8203 9.33795C96.5078 10.0801 96.2539 10.6856 96.0586 11.1544V4.70905C96.0586 3.9278 96.332 3.26373 96.8789 2.71686C97.4258 2.16998 98.0898 1.89655 98.8711 1.89655H126.996C127.777 1.89655 128.441 2.16998 128.988 2.71686C129.535 3.26373 129.809 3.9278 129.809 4.70905V14.963C129.652 14.963 129.457 14.963 129.223 14.963C127.855 14.963 126.996 15.0606 126.645 15.2559V14.963C126.293 14.963 125.902 14.963 125.473 14.963C125.043 14.963 124.75 14.963 124.594 14.963C124.438 14.963 124.242 14.9825 124.008 15.0215C123.773 15.0215 123.598 15.0411 123.48 15.0801C123.402 15.0801 123.285 15.0997 123.129 15.1387C123.012 15.1778 122.914 15.2364 122.836 15.3145V14.963H118.207V15.2559C118.129 15.2169 118.051 15.1973 117.973 15.1973C117.895 15.1583 117.797 15.1192 117.68 15.0801C117.602 15.0411 117.484 15.0215 117.328 15.0215C117.211 15.0215 117.094 15.0215 116.977 15.0215C116.859 14.9825 116.664 14.963 116.391 14.963C116.156 14.963 115.941 14.963 115.746 14.963C115.551 14.963 115.258 14.963 114.867 14.963C114.477 14.963 114.125 14.963 113.812 14.963V15.3145C113.422 15.0801 112.934 14.963 112.348 14.963H108.949C108.91 15.0411 108.852 15.1387 108.773 15.2559C108.695 15.334 108.598 15.4122 108.48 15.4903C108.402 15.5684 108.324 15.6661 108.246 15.7833C108.168 15.9005 108.109 15.9786 108.07 16.0176C107.914 15.8223 107.777 15.6661 107.66 15.5489C107.543 15.4317 107.465 15.3536 107.426 15.3145C107.387 15.2755 107.348 15.2364 107.309 15.1973C107.27 15.1192 107.211 15.0411 107.133 14.963H102.27V20.4122H107.074C107.309 20.1387 107.621 19.7872 108.012 19.3575C108.285 19.67 108.48 19.9044 108.598 20.0606C108.715 20.1778 108.832 20.295 108.949 20.4122H111.762C111.762 20.0997 111.762 19.8653 111.762 19.709C111.801 19.5528 111.82 19.338 111.82 19.0645C112.719 19.0645 113.383 18.9278 113.812 18.6544C113.812 18.9669 113.812 19.2794 113.812 19.5919C113.812 19.9044 113.812 20.1778 113.812 20.4122H116.098C116.098 20.0215 116.098 19.7676 116.098 19.6505C116.098 19.4942 116.098 19.2403 116.098 18.8887C116.41 18.8887 116.605 18.8887 116.684 18.8887C116.684 18.9278 116.684 19.0059 116.684 19.1231C116.684 19.4747 116.684 19.9044 116.684 20.4122C122.426 20.4122 125.414 20.3536 125.648 20.2364C125.688 20.2364 125.766 20.1973 125.883 20.1192V20.4122ZM127.992 16.6036C127.641 16.6036 127.465 16.7403 127.465 17.0137C127.465 17.209 127.602 17.3262 127.875 17.3653C128.188 17.3653 128.539 17.3848 128.93 17.4239C129.32 17.4239 129.594 17.5411 129.75 17.7755V19.2989C129.516 19.6505 129.066 19.8262 128.402 19.8262H126.527L126.586 18.9473H128.461C128.773 18.9473 128.93 18.8301 128.93 18.5958C128.93 18.4005 128.793 18.2833 128.52 18.2442C128.285 18.2051 128.012 18.1856 127.699 18.1856C127.387 18.1856 127.094 18.088 126.82 17.8926C126.547 17.6973 126.41 17.3848 126.41 16.9551C126.41 16.1739 126.879 15.7833 127.816 15.7833H129.75V16.6036H127.992ZM124.652 18.9473C125.004 18.9473 125.18 18.8301 125.18 18.5958C125.18 18.4005 125.043 18.2833 124.77 18.2442C124.496 18.1661 124.203 18.1465 123.891 18.1856C123.578 18.1856 123.285 18.088 123.012 17.8926C122.777 17.6973 122.66 17.3848 122.66 16.9551C122.66 16.1348 123.129 15.7247 124.066 15.7247H126V16.6036H124.184C123.832 16.6036 123.656 16.7403 123.656 17.0137C123.656 17.17 123.793 17.2676 124.066 17.3067C124.34 17.3458 124.633 17.3653 124.945 17.3653C125.258 17.3262 125.531 17.4044 125.766 17.5997C126.039 17.795 126.176 18.1075 126.176 18.5372C126.176 19.3965 125.668 19.8262 124.652 19.8262H122.777V18.9473H124.652ZM122.191 16.6036H119.906V17.3067H122.133V18.1856H119.906V18.9473L122.191 19.0059V19.8262H118.91V15.7833H122.191V16.6036ZM118.852 10.2755C118.891 10.2364 119.047 10.2169 119.32 10.2169C119.32 10.2169 119.34 10.2169 119.379 10.2169C119.418 10.2169 119.457 10.2169 119.496 10.2169L119.027 11.213C118.949 11.213 118.891 11.1934 118.852 11.1544C118.812 11.1153 118.793 10.9786 118.793 10.7442C118.793 10.4708 118.812 10.3145 118.852 10.2755ZM119.145 8.75201H120.082V9.63092C120.004 9.63092 119.867 9.63092 119.672 9.63092C119.516 9.63092 119.398 9.63092 119.32 9.63092C119.242 9.63092 119.125 9.63092 118.969 9.63092C118.852 9.63092 118.754 9.65045 118.676 9.68951C118.637 9.72858 118.559 9.78717 118.441 9.8653C118.363 9.90436 118.305 9.96295 118.266 10.0411C118.227 10.1192 118.188 10.2364 118.148 10.3926C118.148 10.5098 118.148 10.6465 118.148 10.8028C118.148 11.584 118.461 11.9747 119.086 11.9747H119.496L120.902 8.75201H122.309L123.949 12.6192V8.75201H125.473L127.172 11.6231V8.75201H128.168V12.795H126.762L124.945 9.74811V12.795H122.953L122.543 11.9161H120.551L120.199 12.795H119.086C117.797 12.795 117.152 12.1309 117.152 10.8028C117.152 9.43561 117.816 8.75201 119.145 8.75201ZM121.605 9.45514L120.902 11.0958H122.25L121.605 9.45514ZM115.688 8.75201H116.684V12.795H115.688V8.75201Z" fill="#ECC75D"/>
<path d="M27.5977 23.1289C28.0664 23.1289 28.3008 23.3633 28.3008 23.832C28.3008 24.2617 28.0664 24.4766 27.5977 24.4766C27.168 24.4766 26.9531 24.2617 26.9531 23.832C26.9531 23.3633 27.168 23.1289 27.5977 23.1289ZM10.0781 23.1289C10.5078 23.1289 10.7227 23.3633 10.7227 23.832C10.7227 24.2617 10.5078 24.4766 10.0781 24.4766C9.64844 24.4766 9.43359 24.2617 9.43359 23.832C9.43359 23.3633 9.64844 23.1289 10.0781 23.1289ZM16.4062 23.5977C16.4453 23.2461 16.6211 23.0703 16.9336 23.0703C17.2852 23.0703 17.4805 23.2461 17.5195 23.5977H16.4062ZM23.2617 23.1289C23.7305 23.1289 23.9648 23.3633 23.9648 23.832C23.9648 24.2617 23.7305 24.4766 23.2617 24.4766C22.832 24.4766 22.6172 24.2617 22.6172 23.832C22.6172 23.3633 22.832 23.1289 23.2617 23.1289ZM29.4727 24.6523C29.5117 24.6523 29.5312 24.6719 29.5312 24.7109C29.5312 24.7109 29.5117 24.7305 29.4727 24.7695C29.4727 24.8086 29.4727 24.8281 29.4727 24.8281C29.4336 24.8281 29.4141 24.8281 29.4141 24.8281C29.375 24.8281 29.3555 24.8281 29.3555 24.8281C29.3164 24.8281 29.2969 24.8281 29.2969 24.8281C29.2578 24.8281 29.2383 24.8281 29.2383 24.8281C29.1992 24.7891 29.1797 24.7695 29.1797 24.7695C29.1797 24.7305 29.1797 24.7109 29.1797 24.7109C29.1797 24.6719 29.1797 24.6523 29.1797 24.6523C29.1797 24.6133 29.1992 24.5938 29.2383 24.5938C29.2383 24.5547 29.2383 24.5352 29.2383 24.5352H29.2969C29.2969 24.5352 29.3164 24.5352 29.3555 24.5352C29.3555 24.5352 29.375 24.5352 29.4141 24.5352C29.4531 24.5742 29.4727 24.5938 29.4727 24.5938C29.4727 24.5938 29.4727 24.6133 29.4727 24.6523ZM29.3555 24.7109C29.3555 24.7109 29.375 24.7109 29.4141 24.7109C29.4141 24.7109 29.4141 24.6914 29.4141 24.6523C29.4141 24.6133 29.4141 24.5938 29.4141 24.5938C29.4141 24.5938 29.3945 24.5938 29.3555 24.5938H29.2383V24.7695H29.2969V24.7109L29.3555 24.7695H29.4141L29.3555 24.7109ZM33.75 4.49609V25.1211C33.75 25.9023 33.4766 26.5664 32.9297 27.1133C32.3828 27.6602 31.7188 27.9336 30.9375 27.9336H2.8125C2.03125 27.9336 1.36719 27.6602 0.820312 27.1133C0.273438 26.5664 0 25.9023 0 25.1211V4.49609C0 3.71484 0.273438 3.05078 0.820312 2.50391C1.36719 1.95703 2.03125 1.68359 2.8125 1.68359H30.9375C31.7188 1.68359 32.3828 1.95703 32.9297 2.50391C33.4766 3.05078 33.75 3.71484 33.75 4.49609ZM6.09375 6.95703C4.53125 8.51953 3.75 10.4336 3.75 12.6992C3.75 14.9258 4.53125 16.8398 6.09375 18.4414C7.69531 20.0039 9.60938 20.7852 11.8359 20.7852C13.4766 20.7852 14.9805 20.3359 16.3477 19.4375C14.1992 17.6797 13.125 15.4336 13.125 12.6992C13.1641 9.92578 14.2383 7.67969 16.3477 5.96094C14.9805 5.02344 13.4766 4.55469 11.8359 4.55469C9.60938 4.55469 7.69531 5.35547 6.09375 6.95703ZM16.875 19.0273C18.9453 17.4258 19.9805 15.3164 19.9805 12.6992C19.9805 10.043 18.9453 7.91406 16.875 6.3125C14.8047 7.91406 13.7695 10.043 13.7695 12.6992C13.7695 15.3164 14.8047 17.4258 16.875 19.0273ZM8.55469 23.5391C8.55469 22.9531 8.26172 22.6602 7.67578 22.6602C7.32422 22.6602 7.07031 22.7969 6.91406 23.0703C6.75781 22.7969 6.52344 22.6602 6.21094 22.6602C5.9375 22.6602 5.72266 22.7578 5.56641 22.9531V22.7188H5.09766V24.8867H5.56641C5.56641 24.7695 5.56641 24.6328 5.56641 24.4766C5.56641 24.2812 5.56641 24.1445 5.56641 24.0664C5.56641 23.9492 5.56641 23.832 5.56641 23.7148C5.56641 23.5977 5.58594 23.5195 5.625 23.4805C5.66406 23.4023 5.70312 23.3438 5.74219 23.3047C5.78125 23.2266 5.82031 23.168 5.85938 23.1289C5.9375 23.0898 6.01562 23.0703 6.09375 23.0703C6.32812 23.0703 6.46484 23.168 6.50391 23.3633C6.58203 23.5586 6.62109 23.8906 6.62109 24.3594C6.62109 24.5938 6.62109 24.7695 6.62109 24.8867H7.03125C7.03125 24.7695 7.03125 24.6328 7.03125 24.4766C7.03125 24.2812 7.03125 24.1445 7.03125 24.0664C7.03125 23.9492 7.03125 23.832 7.03125 23.7148C7.07031 23.5977 7.08984 23.5195 7.08984 23.4805C7.12891 23.4023 7.16797 23.3438 7.20703 23.3047C7.24609 23.2266 7.28516 23.168 7.32422 23.1289C7.40234 23.0898 7.5 23.0703 7.61719 23.0703C7.8125 23.0703 7.92969 23.168 7.96875 23.3633C8.04688 23.5586 8.08594 23.8906 8.08594 24.3594C8.08594 24.5938 8.08594 24.7695 8.08594 24.8867H8.55469V23.5391ZM11.1914 22.7188H10.7227V22.9531C10.5273 22.7578 10.293 22.6602 10.0195 22.6602C9.70703 22.6602 9.45312 22.7773 9.25781 23.0117C9.0625 23.207 8.96484 23.4805 8.96484 23.832C8.96484 24.1445 9.0625 24.418 9.25781 24.6523C9.45312 24.8477 9.70703 24.9453 10.0195 24.9453C10.332 24.9453 10.5664 24.8281 10.7227 24.5938V24.8867H11.1914V22.7188ZM13.5352 24.2422C13.5352 23.8906 13.3008 23.6758 12.832 23.5977C12.4023 23.5195 12.1875 23.4219 12.1875 23.3047C12.1875 23.1484 12.3242 23.0703 12.5977 23.0703C12.8711 23.0703 13.1055 23.1289 13.3008 23.2461L13.4766 22.8945C13.2031 22.6602 12.832 22.582 12.3633 22.6602C11.9336 22.7383 11.7188 22.9727 11.7188 23.3633C11.7188 23.6758 11.9336 23.8906 12.3633 24.0078C12.832 24.0859 13.0664 24.1641 13.0664 24.2422C13.0664 24.4375 12.9102 24.5352 12.5977 24.5352C12.2852 24.5352 12.0312 24.457 11.8359 24.3008L11.6016 24.6523C11.9531 24.8867 12.3633 24.9648 12.832 24.8867C13.3008 24.8086 13.5352 24.5938 13.5352 24.2422ZM15.5859 24.7695L15.4688 24.3594C15 24.6328 14.7656 24.5547 14.7656 24.125V23.1289H15.5273V22.7188H14.7656V22.0742H14.2969V22.7188H13.8281V23.1289H14.2969V24.125C14.2969 24.5938 14.4727 24.8672 14.8242 24.9453C15.2148 24.9844 15.4688 24.9258 15.5859 24.7695ZM16.4062 24.0078H17.9883C17.9883 23.1094 17.6562 22.6602 16.9922 22.6602C16.6797 22.6602 16.4258 22.7773 16.2305 23.0117C16.0352 23.207 15.9375 23.4609 15.9375 23.7734C15.9375 24.3594 16.1719 24.7305 16.6406 24.8867C17.1484 25.043 17.5781 24.9453 17.9297 24.5938L17.6953 24.2422C17.4609 24.4766 17.1875 24.5742 16.875 24.5352C16.6016 24.457 16.4453 24.2812 16.4062 24.0078ZM19.8633 22.7188C19.4727 22.5625 19.1797 22.6406 18.9844 22.9531V22.7188H18.5156V24.8867H18.9844V23.6562C18.9844 23.3438 19.082 23.168 19.2773 23.1289C19.4727 23.0508 19.6094 23.0703 19.6875 23.1875L19.8633 22.7188ZM20.8594 24.4766C20.625 24.3594 20.5078 24.1445 20.5078 23.832C20.5078 23.4805 20.625 23.2656 20.8594 23.1875C21.1328 23.0703 21.4062 23.1094 21.6797 23.3047L21.9141 22.8945C21.5625 22.6211 21.1523 22.582 20.6836 22.7773C20.2148 22.9336 19.9805 23.2656 19.9805 23.7734C19.9805 24.3203 20.2148 24.6914 20.6836 24.8867C21.1914 25.043 21.6016 24.9648 21.9141 24.6523L21.6797 24.3008C21.4062 24.4961 21.1328 24.5547 20.8594 24.4766ZM24.375 22.7188H23.9062V22.9531C23.6719 22.6406 23.3203 22.582 22.8516 22.7773C22.3828 22.9336 22.1484 23.2656 22.1484 23.7734C22.1484 24.3203 22.3828 24.6914 22.8516 24.8867C23.3203 25.043 23.6719 24.9453 23.9062 24.5938V24.8867H24.375V22.7188ZM26.3672 22.7188C25.9766 22.5234 25.6836 22.6016 25.4883 22.9531V22.7188H25.0195V24.8867H25.4883V23.6562C25.4883 23.3828 25.5859 23.207 25.7812 23.1289C25.9766 23.0508 26.1328 23.0703 26.25 23.1875L26.3672 22.7188ZM28.7109 21.8398H28.2422V22.9531C28.0078 22.6406 27.6562 22.582 27.1875 22.7773C26.7188 22.9336 26.4844 23.2852 26.4844 23.832C26.4844 24.3398 26.7188 24.6914 27.1875 24.8867C27.6953 25.043 28.0469 24.9453 28.2422 24.5938V24.8867H28.7109V21.8398ZM29.1797 17.4453V17.7383H29.2383V17.4453H29.2969V17.3867H29.0625V17.4453H29.1797ZM29.5312 24.7109C29.5312 24.6719 29.5312 24.6328 29.5312 24.5938C29.4922 24.5547 29.4727 24.5352 29.4727 24.5352C29.4336 24.4961 29.4141 24.4766 29.4141 24.4766C29.4141 24.4766 29.3945 24.4766 29.3555 24.4766C29.3164 24.4766 29.2969 24.4766 29.2969 24.4766C29.2969 24.4766 29.2773 24.4766 29.2383 24.4766C29.1992 24.5156 29.1797 24.5352 29.1797 24.5352C29.1406 24.5742 29.1211 24.5938 29.1211 24.5938C29.1211 24.6328 29.1211 24.6719 29.1211 24.7109C29.1211 24.75 29.1211 24.7695 29.1211 24.7695C29.1211 24.8086 29.1406 24.8281 29.1797 24.8281C29.2188 24.8672 29.2383 24.8867 29.2383 24.8867C29.2773 24.8867 29.3164 24.8867 29.3555 24.8867C29.3945 24.8867 29.4141 24.8867 29.4141 24.8867C29.4531 24.8477 29.4727 24.8281 29.4727 24.8281C29.5117 24.7891 29.5312 24.7695 29.5312 24.7695C29.5312 24.7695 29.5312 24.75 29.5312 24.7109ZM29.7656 17.3867H29.6484L29.5898 17.6211L29.4727 17.3867H29.4141V17.6797V17.4453L29.5312 17.6797H29.5898L29.6484 17.4453V17.6797H29.7656V17.3867ZM30 12.6992C30 10.4336 29.1992 8.51953 27.5977 6.95703C26.0352 5.35547 24.1406 4.55469 21.9141 4.55469C20.2734 4.55469 18.7695 5.00391 17.4023 5.90234C19.5117 7.66016 20.5664 9.92578 20.5664 12.6992C20.6055 15.4336 19.5508 17.6797 17.4023 19.4375C18.7695 20.3359 20.2734 20.7852 21.9141 20.7852C24.1406 20.7852 26.0352 20.0039 27.5977 18.4414C29.1992 16.8398 30 14.9258 30 12.6992Z" fill="#ECC75D"/>
<path d="M75.3074 13.2852C75.6199 14.7695 75.7957 15.6484 75.8347 15.9219H73.9011L74.8386 13.4023C74.8386 13.4023 74.8582 13.3633 74.8972 13.2852C74.9363 13.168 74.9753 13.0312 75.0144 12.875C75.0535 12.7188 75.0925 12.6016 75.1316 12.5234L75.3074 13.2852ZM81.5183 4.4375V25.0625C81.5183 25.8438 81.2449 26.5078 80.698 27.0547C80.1511 27.6016 79.4871 27.875 78.7058 27.875H50.5808C49.7996 27.875 49.1355 27.6016 48.5886 27.0547C48.0417 26.5078 47.7683 25.8438 47.7683 25.0625V4.4375C47.7683 3.65625 48.0417 2.99219 48.5886 2.44531C49.1355 1.89844 49.7996 1.625 50.5808 1.625H78.7058C79.4871 1.625 80.1511 1.89844 80.698 2.44531C81.2449 2.99219 81.5183 3.65625 81.5183 4.4375ZM56.6746 19.1445L60.4246 10.0625H57.905L55.6199 16.2734L55.3855 14.9844L54.5652 10.8242C54.448 10.3555 54.0769 10.1016 53.4519 10.0625H49.7019L49.6433 10.2383C50.5417 10.4727 51.3621 10.8047 52.1042 11.2344L54.2136 19.1445H56.6746ZM62.241 19.1445L63.7058 10.0625H61.3621L59.8972 19.1445H62.241ZM70.4441 16.2148C70.4441 15.1992 69.78 14.3594 68.4519 13.6953C67.5535 13.2656 67.1042 12.8945 67.1042 12.582C67.1433 12.0742 67.6121 11.8203 68.5105 11.8203C69.0964 11.7812 69.6628 11.8984 70.2097 12.1719L70.4441 12.2305L70.7371 10.2969C70.1121 10.0234 69.4089 9.88672 68.6277 9.88672C67.8855 9.88672 67.2019 10.0234 66.5769 10.2969C65.991 10.5312 65.5222 10.8828 65.1707 11.3516C64.8582 11.8203 64.7019 12.3281 64.7019 12.875C64.6628 13.8516 65.3464 14.6914 66.7527 15.3945C67.573 15.7852 67.9832 16.1562 67.9832 16.5078C67.9441 17.0938 67.4753 17.3867 66.5769 17.3867C65.8347 17.3867 65.0925 17.2305 64.3503 16.918L64.0574 16.7422L63.7058 18.793C64.3699 19.1055 65.2488 19.2812 66.3425 19.3203C67.5535 19.3203 68.53 19.0469 69.2722 18.5C70.0535 17.9141 70.4441 17.1523 70.4441 16.2148ZM78.7058 19.1445L76.8308 10.0625H74.9558C74.3699 10.0625 73.9792 10.3164 73.7839 10.8242L70.2683 19.1445H72.7292C73.0027 18.4023 73.1589 17.9531 73.198 17.7969H76.2449L76.5378 19.1445H78.7058Z" fill="#ECC75D"/>
</svg>
