<svg width="35" height="35" viewBox="0 0 35 35" fill="none" xmlns="http://www.w3.org/2000/svg">
<path d="M11.6719 27.4141C11.6719 27.6016 11.5547 27.6953 11.3203 27.6953C11.0391 27.7422 10.8984 27.6484 10.8984 27.4141C10.8984 27.2734 11.0156 27.2031 11.25 27.2031C11.5312 27.1562 11.6719 27.2266 11.6719 27.4141ZM9.77344 27.4844C9.49219 27.4375 9.375 27.3203 9.42188 27.1328C9.51562 26.9453 9.67969 26.8984 9.91406 26.9922C10.1484 27.0391 10.2422 27.1562 10.1953 27.3438C10.1484 27.5312 10.0078 27.5781 9.77344 27.4844ZM12.5859 26.9922C12.8203 26.9922 12.9375 27.0625 12.9375 27.2031C12.9844 27.3438 12.8906 27.4609 12.6562 27.5547C12.4219 27.6016 12.2812 27.5312 12.2344 27.3438C12.2344 27.1562 12.3516 27.0391 12.5859 26.9922ZM17.2266 0.0625C20.4141 0.0625 23.3672 0.8125 26.0859 2.3125C28.8047 3.8125 30.9375 5.875 32.4844 8.5C34.0781 11.125 34.875 14.0312 34.875 17.2188C34.875 21.1094 33.7734 24.6016 31.5703 27.6953C29.4141 30.7422 26.5781 32.8516 23.0625 34.0234C22.6875 34.1172 22.3828 34.0703 22.1484 33.8828C21.9609 33.6953 21.8672 33.4609 21.8672 33.1797C21.8672 33.1328 21.8672 32.3828 21.8672 30.9297C21.8672 29.4297 21.8672 28.2109 21.8672 27.2734C21.8672 25.7734 21.4688 24.6953 20.6719 24.0391C21.7031 23.8984 22.5 23.7812 23.0625 23.6875C23.625 23.5938 24.3281 23.3828 25.1719 23.0547C26.0156 22.7266 26.6484 22.3047 27.0703 21.7891C27.5391 21.2734 27.9375 20.5469 28.2656 19.6094C28.5938 18.6719 28.7578 17.5469 28.7578 16.2344C28.7578 15.3438 28.6172 14.6172 28.3359 14.0547C28.0547 13.4922 27.5859 12.8594 26.9297 12.1562C27.4922 10.7031 27.4453 9.10938 26.7891 7.375C26.3203 7.23438 25.6875 7.32812 24.8906 7.65625C24.0938 7.9375 23.3906 8.26563 22.7812 8.64062L21.9375 9.27344C20.4844 8.85156 18.9844 8.64062 17.4375 8.64062C15.9375 8.64062 14.4844 8.85156 13.0781 9.27344C12.8438 9.08594 12.5156 8.875 12.0938 8.64062C11.6719 8.35938 11.0156 8.05469 10.125 7.72656C9.28125 7.35156 8.64844 7.23438 8.22656 7.375C7.52344 9.10938 7.45312 10.7031 8.01562 12.1562C6.9375 13.3281 6.39844 14.6875 6.39844 16.2344C6.39844 17.5469 6.5625 18.6719 6.89062 19.6094C7.21875 20.5469 7.59375 21.2734 8.01562 21.7891C8.4375 22.3047 9.04688 22.7266 9.84375 23.0547C10.6406 23.3828 11.3203 23.6172 11.8828 23.7578C12.4922 23.8516 13.2891 23.9453 14.2734 24.0391C13.6641 24.6016 13.2891 25.3984 13.1484 26.4297C12.6797 26.6172 12.1875 26.7578 11.6719 26.8516C11.2031 26.9453 10.5938 26.8516 9.84375 26.5703C9.09375 26.2891 8.48438 25.75 8.01562 24.9531C7.73438 24.4375 7.35938 24.0391 6.89062 23.7578C6.46875 23.4297 6.09375 23.2422 5.76562 23.1953L5.34375 23.125C4.3125 23.125 4.26562 23.4766 5.20312 24.1797C5.53125 24.3672 5.85938 24.6719 6.1875 25.0938C6.51562 25.5156 6.75 25.8906 6.89062 26.2188L7.17188 26.7812C7.35938 27.3438 7.6875 27.8125 8.15625 28.1875C8.625 28.5625 9.14062 28.7969 9.70312 28.8906C10.2656 28.9844 10.8047 29.0312 11.3203 29.0312C11.8359 29.0312 12.2578 29.0078 12.5859 28.9609L13.0781 28.8906C13.0781 29.4531 13.0781 30.2969 13.0781 31.4219C13.125 32.5469 13.1484 33.1328 13.1484 33.1797C13.1484 33.4609 13.0312 33.6953 12.7969 33.8828C12.6094 34.0703 12.3281 34.1172 11.9531 34.0234C8.39062 32.8516 5.50781 30.7422 3.30469 27.6953C1.10156 24.6016 0 21.1094 0 17.2188C0 12.3438 1.64062 8.26563 4.92188 4.98438C8.25 1.70312 12.3516 0.0625 17.2266 0.0625ZM6.82031 24.3203C6.91406 24.2266 7.03125 24.25 7.17188 24.3906C7.3125 24.5312 7.33594 24.6484 7.24219 24.7422C7.14844 24.8359 7.03125 24.8125 6.89062 24.6719C6.75 24.5312 6.72656 24.4141 6.82031 24.3203ZM6.04688 23.7578C6.14062 23.6641 6.25781 23.6406 6.39844 23.6875C6.53906 23.7812 6.58594 23.875 6.53906 23.9688C6.49219 24.1094 6.39844 24.1328 6.25781 24.0391C6.07031 23.9453 6 23.8516 6.04688 23.7578ZM8.36719 26.2188C8.46094 26.0781 8.60156 26.1016 8.78906 26.2891C8.97656 26.4766 9.02344 26.6406 8.92969 26.7812C8.78906 26.9219 8.625 26.8984 8.4375 26.7109C8.25 26.5234 8.22656 26.3594 8.36719 26.2188ZM7.52344 25.2344C7.66406 25.0938 7.80469 25.1406 7.94531 25.375C8.08594 25.5625 8.08594 25.7031 7.94531 25.7969C7.80469 25.8906 7.66406 25.8438 7.52344 25.6562C7.42969 25.4219 7.42969 25.2812 7.52344 25.2344Z" fill="#744E99"/>
</svg>
