<svg width="285" height="43" viewBox="0 0 285 43" fill="none" xmlns="http://www.w3.org/2000/svg">
<path d="M124.165 37.8131V21.9032C124.165 20.7814 123.825 18.4357 122.261 17.8578H130.828C129.264 18.4357 128.924 20.7814 128.924 21.9032V37.8131C128.924 38.7649 129.264 41.2806 130.828 41.8585H122.261C123.825 41.2806 124.165 38.7649 124.165 37.8131Z" fill="#744E99"/>
<path d="M171.962 21.8352C171.962 24.3169 170.364 26.0167 168.358 27.4785L158.601 34.6515V37.6771C158.601 38.6289 159.145 41.2806 160.675 41.8585H151.937C153.501 41.2806 153.841 38.6289 153.841 37.6771V25.2008L153.297 25.9827L146.875 33.5636L140.449 26.0167L139.871 25.1668V37.6771C139.871 38.6289 140.211 41.2806 141.775 41.8585H133.344C134.908 41.2806 135.248 38.6289 135.248 37.6771V22.5831C135.248 21.4613 134.908 18.4357 133.344 17.8578H141.911C140.891 18.2317 140.483 18.9456 140.313 19.6935L146.875 27.4785L153.436 19.6595C153.13 18.8437 152.688 18.1298 151.94 17.8578H166.695C169.412 17.8578 171.962 18.6737 171.962 21.8352ZM167.202 22.7531C167.202 21.4273 165.808 21.5293 164.516 21.5293H158.601V30.1641L165.366 25.0648C166.182 24.4529 167.202 23.841 167.202 22.7531Z" fill="#744E99"/>
<path d="M174.888 34.1756V22.2432C174.888 21.1213 174.548 18.4357 172.984 17.8578H181.518C179.988 18.4357 179.648 21.1213 179.648 22.2432V33.5296C179.648 36.6232 180.974 38.221 184.339 38.221C187.671 38.221 188.997 36.6232 188.997 33.5296V22.2432C188.997 21.1213 188.657 18.4357 187.127 17.8578H195.66C194.097 18.4357 193.757 21.1213 193.757 22.2432V34.1756C193.757 39.4788 190.425 42.0965 184.339 42.0965C178.084 42.0965 174.888 39.4788 174.888 34.1756Z" fill="#744E99"/>
<path d="M216.26 36.2493L215.002 41.8585H197.936C199.499 41.2806 199.839 38.6289 199.839 37.6771V22.2432C199.839 21.1213 199.499 18.4357 197.936 17.8578H206.503C204.939 18.4357 204.599 21.1213 204.599 22.2432V38.153L212.452 38.187C214.427 38.187 215.583 37.2011 216.26 36.2493Z" fill="#744E99"/>
<path d="M235.094 35.3993C235.094 39.9887 231.389 42.1304 227.037 42.1304C224.181 42.1304 222.243 41.1785 220.68 40.1927L218.504 42.0964L216.838 32.5097C219.898 36.5551 222.719 38.5269 226.051 38.5269C228.873 38.5269 230.267 37.2011 230.267 35.3313C230.267 32.7477 227.547 31.4558 224.657 30.096C221.394 28.5322 217.892 26.9005 217.892 23.127C217.892 19.2515 221.156 17.5178 224.487 17.5178C226.493 17.5178 228.499 18.0617 229.995 19.0815L231.933 17.3478L233.7 25.7786C231.389 22.5831 227.819 21.0533 225.541 21.0533C223.399 21.0533 222.651 21.8352 222.651 23.161C222.651 24.5888 224.623 25.5067 226.969 26.5945C230.573 28.2603 235.094 30.368 235.094 35.3993Z" fill="#744E99"/>
<path d="M237.409 29.8581C237.409 21.9712 242.135 17.5858 248.696 17.5858C255.257 17.5858 259.983 21.9712 259.983 29.8581C259.983 37.7111 255.257 42.0965 248.696 42.0965C242.135 42.0965 237.409 37.7111 237.409 29.8581ZM254.949 29.8581C254.949 24.0109 252.501 21.4953 248.693 21.4953C244.852 21.4953 242.438 24.0109 242.438 29.8581C242.438 35.7053 244.852 38.221 248.693 38.221C252.501 38.221 254.949 35.7053 254.949 29.8581Z" fill="#744E99"/>
<path d="M21.5201 23.671C20.8062 22.6511 19.2763 21.5293 17.3045 21.5293H13.1569V37.6771C13.1569 38.6289 13.4968 41.2806 15.0607 41.8585H6.49344C8.05731 41.2806 8.39729 38.6289 8.39729 37.6771V21.5293H4.21564C2.24381 21.5293 0.713939 22.6511 0 23.671L1.25789 17.8578H20.2623L21.5201 23.671Z" fill="#744E99"/>
<path d="M42.0203 41.8585H33.453C35.0169 41.2806 35.3569 38.6289 35.3569 37.6771V29.6202H26.7556C26.6196 30.878 26.6196 31.9999 26.6196 32.8497V37.6771C26.6196 38.6289 26.9596 41.2806 28.5234 41.8585H19.9562C21.52 41.2806 21.86 38.6289 21.86 37.6771V32.4078C21.86 28.4643 22.8799 17.8578 35.8328 17.8578H42.0203C40.4564 18.4357 40.1164 21.1213 40.1164 22.2432V37.6771C40.1164 38.6289 40.4564 41.2806 42.0203 41.8585ZM35.3569 25.9487V21.6313C31.0392 21.8012 28.8634 23.671 27.7415 25.9487H35.3569Z" fill="#744E99"/>
<path d="M58.8149 38.7309L53.9873 29.0083H51.1995V37.6771C51.1995 38.6289 51.7435 41.2806 53.2734 41.8585H44.5361C46.1 41.2806 46.44 38.6289 46.44 37.6771V22.2432C46.44 21.1213 46.1 18.4357 44.5361 17.8578H57.863C61.0587 17.8578 64.7644 18.5037 64.7644 23.399C64.7644 26.8666 61.6027 28.3963 58.5429 28.6003L63.9145 38.7309C64.3904 39.6488 65.4783 41.2806 66.9062 41.8585H58.2369C59.8008 41.2806 59.2569 39.6488 58.8149 38.7309ZM51.1995 25.6087H57.319C58.7809 25.6087 60.0048 25.3368 60.0048 23.535C60.0048 21.9372 58.7809 21.4953 57.319 21.4953H51.1995V25.6087Z" fill="#744E99"/>
<path d="M66.5322 29.8581C66.5322 21.9712 71.2578 17.5858 77.8193 17.5858C84.3807 17.5858 89.1063 21.9712 89.1063 29.8581C89.1063 37.7111 84.3807 42.0965 77.8193 42.0965C71.2578 42.0965 66.5322 37.7111 66.5322 29.8581ZM84.0747 29.8581C84.0747 24.0109 81.6269 21.4953 77.8193 21.4953C73.9776 21.4953 71.5638 24.0109 71.5638 29.8581C71.5638 35.7053 73.9776 38.221 77.8193 38.221C81.6269 38.221 84.0747 35.7053 84.0747 29.8581Z" fill="#744E99"/>
<path d="M110.898 23.671C110.185 22.6511 108.655 21.5293 106.683 21.5293H102.535V37.6771C102.535 38.6289 102.875 41.2806 104.439 41.8585H95.8717C97.4356 41.2806 97.7756 38.6289 97.7756 37.6771V21.5293H93.5939C91.6221 21.5293 90.0922 22.6511 89.3783 23.671L90.6362 17.8578H109.641L110.898 23.671Z" fill="#744E99"/>
<path d="M267.805 12.0265C267.443 12.04 267.114 12.0212 266.826 11.9782C267.165 11.9782 267.491 11.9947 267.805 12.0265C270.661 11.92 275.553 9.79891 278.134 1.6521C277.596 4.32923 278.134 10.0659 285 11.2133C278.538 13.508 277.73 18.0973 276.923 22.3043C275.384 19.3906 274.066 12.6617 267.805 12.0265Z" fill="#ECC75D"/>
<path d="M267.271 29.3589C267.106 29.3681 266.957 29.3553 266.826 29.3261C266.98 29.3261 267.128 29.3373 267.271 29.3589C268.569 29.2865 270.793 27.8442 271.966 22.3043C271.721 24.1248 271.966 28.0257 275.087 28.8059C272.15 30.3663 271.783 33.4871 271.415 36.3478C270.716 34.3665 270.117 29.7908 267.271 29.3589Z" fill="#ECC75D"/>
<path d="M257.269 5.3947C257.137 5.40171 257.018 5.39192 256.913 5.36957C257.036 5.36957 257.155 5.37816 257.269 5.3947C258.307 5.3393 260.087 4.23634 261.025 0C260.829 1.39211 261.025 4.3752 263.522 4.97182C261.172 6.16506 260.878 8.55153 260.585 10.7391C260.025 9.22402 259.546 5.72497 257.269 5.3947Z" fill="#ECC75D"/>
</svg>
