<svg width="293" height="43" viewBox="0 0 293 43" fill="none" xmlns="http://www.w3.org/2000/svg">
<path d="M274.69 11.5402C274.338 11.5832 274.016 11.5921 273.732 11.5739C274.062 11.5459 274.382 11.5351 274.69 11.5402C277.467 11.2003 282.065 8.72713 283.909 0.567207C283.605 3.22306 284.604 8.77437 291.396 9.3263C285.283 12.0985 284.874 16.6418 284.433 20.8122C282.692 18.0972 280.85 11.6425 274.69 11.5402Z" fill="#ECC75D"/>
<path d="M274.744 26.3511C274.58 26.3603 274.43 26.3475 274.299 26.3182C274.454 26.3182 274.602 26.3295 274.744 26.3511C276.042 26.2787 278.266 24.8363 279.44 19.2965C279.195 21.117 279.44 25.0179 282.56 25.7981C279.623 27.3585 279.256 30.4793 278.889 33.34C278.19 31.3587 277.59 26.783 274.744 26.3511Z" fill="#ECC75D"/>
<path d="M266.655 5.69121C266.524 5.69822 266.404 5.68843 266.299 5.66607C266.423 5.66607 266.541 5.67467 266.655 5.69121C267.694 5.63581 269.473 4.53285 270.412 0.296509C270.216 1.68862 270.412 4.67171 272.908 5.26833C270.558 6.46157 270.265 8.84804 269.971 11.0356C269.412 9.52053 268.932 6.02148 266.655 5.69121Z" fill="#ECC75D"/>
<path d="M9.272 11.4205C8.48667 11.5471 7.77733 11.6991 7.144 11.8765C6.51067 12.0538 5.94067 12.2438 5.434 12.4465C4.77533 12.7251 4.16733 13.2065 3.61 13.8905C3.05267 14.5491 2.55867 15.3978 2.128 16.4365L0.608 16.3985L0 16.0565L1.786 8.57048H3.306C3.458 8.67181 3.61 8.74781 3.762 8.79848C3.914 8.84915 4.05333 8.89981 4.18 8.95048C4.30667 8.97581 4.43333 9.01381 4.56 9.06448C4.712 9.08981 4.83867 9.11515 4.94 9.14048C5.04133 9.16581 5.14267 9.19115 5.244 9.21648C5.34533 9.21648 5.44667 9.22915 5.548 9.25448C5.59867 9.25448 5.64933 9.25448 5.7 9.25448C5.75067 9.25448 5.80133 9.25448 5.852 9.25448L18.544 9.17848C18.848 9.22915 19.1267 9.25448 19.38 9.25448C19.6587 9.22915 19.912 9.20381 20.14 9.17848C20.368 9.15315 20.5707 9.10248 20.748 9.02648C20.9253 8.92515 21.09 8.79848 21.242 8.64648L22.762 8.60848L24.586 16.3605L23.978 16.6265H22.458C22.23 15.7651 21.8753 15.0051 21.394 14.3465C20.9127 13.6878 20.3047 13.1305 19.57 12.6745C19.0127 12.3198 18.3667 12.0411 17.632 11.8385C16.9227 11.6358 16.1373 11.4965 15.276 11.4205V31.2945C15.276 31.7758 15.3267 32.1685 15.428 32.4725C15.5547 32.7765 15.7447 32.9918 15.998 33.1185C16.226 33.2451 16.4667 33.3591 16.72 33.4605C16.9987 33.5618 17.2773 33.6505 17.556 33.7265H17.594H17.67V34.2965H16.15H6.878V33.6885C7.258 33.6631 7.58733 33.5871 7.866 33.4605C8.17 33.3338 8.42333 33.1818 8.626 33.0045C8.82867 32.8018 8.98067 32.5485 9.082 32.2445C9.20867 31.9151 9.272 31.5225 9.272 31.0665V11.4205Z" fill="#744E99"/>
<path d="M38.6549 21.4145V21.3005L38.6929 21.1485V21.0345V20.8825C38.6929 20.2745 38.5916 19.7425 38.3889 19.2865C38.1862 18.8051 37.8949 18.4125 37.5149 18.1085C37.2362 17.8805 36.9196 17.6905 36.5649 17.5385C36.2102 17.3865 35.8302 17.2851 35.4249 17.2345C35.3996 17.2345 35.3616 17.2471 35.3109 17.2725C35.2856 17.2725 35.2602 17.2725 35.2349 17.2725C35.2096 17.2725 35.1716 17.2851 35.1209 17.3105C35.0956 17.3105 35.0702 17.3105 35.0449 17.3105C34.9436 17.3358 34.8422 17.3611 34.7409 17.3865C34.6396 17.3865 34.5509 17.3991 34.4749 17.4245C34.3736 17.4498 34.2722 17.4751 34.1709 17.5005C34.0696 17.5258 33.9682 17.5511 33.8669 17.5765C33.3096 17.7538 32.7522 17.9945 32.1949 18.2985C31.6376 18.5771 31.1056 18.9318 30.5989 19.3625C30.0669 19.7678 29.5982 20.2238 29.1929 20.7305C28.8129 21.2371 28.4836 21.7945 28.2049 22.4025L26.6849 22.3645L27.2929 16.0565H28.8129C28.8636 16.1578 28.9142 16.2338 28.9649 16.2845C29.0156 16.3098 29.0662 16.3478 29.1169 16.3985C29.1169 16.3985 29.1169 16.4111 29.1169 16.4365C29.1422 16.4365 29.1676 16.4491 29.1929 16.4745C29.2182 16.4998 29.2309 16.5251 29.2309 16.5505C29.2562 16.5505 29.2816 16.5505 29.3069 16.5505C29.3576 16.5251 29.4082 16.5125 29.4589 16.5125C29.5349 16.4871 29.5856 16.4618 29.6109 16.4365C29.8136 16.3351 30.0416 16.2338 30.2949 16.1325C30.5736 16.0058 30.8649 15.8918 31.1689 15.7905C31.4476 15.6891 31.7642 15.6005 32.1189 15.5245C32.4736 15.4231 32.8536 15.3218 33.2589 15.2205C33.6896 15.1191 34.1456 15.0431 34.6269 14.9925C35.1336 14.9418 35.6782 14.9165 36.2609 14.9165L37.7809 14.8785C38.6676 14.9038 39.5036 15.0305 40.2889 15.2585C41.0742 15.4611 41.7836 15.7778 42.4169 16.2085C43.0756 16.6138 43.5569 17.1205 43.8609 17.7285C44.1902 18.3111 44.3549 18.9698 44.3549 19.7045V30.1165C44.3549 30.6231 44.3929 31.0538 44.4689 31.4085C44.5449 31.7631 44.6716 32.0798 44.8489 32.3585C45.0009 32.6118 45.1656 32.8271 45.3429 33.0045C45.5456 33.1818 45.7482 33.3338 45.9509 33.4605C46.0522 33.5111 46.1409 33.5618 46.2169 33.6125C46.3182 33.6378 46.4196 33.6631 46.5209 33.6885C46.6222 33.7138 46.7109 33.7391 46.7869 33.7645C46.8882 33.7645 46.9769 33.7645 47.0529 33.7645V34.2965H45.5329H40.1369L40.0609 34.2585L40.0229 34.1825C39.9216 34.0051 39.8202 33.8278 39.7189 33.6505C39.6176 33.4478 39.5289 33.2451 39.4529 33.0425C39.4276 32.9918 39.4022 32.9538 39.3769 32.9285C39.3769 32.8778 39.3769 32.8271 39.3769 32.7765C39.3516 32.7511 39.3262 32.7131 39.3009 32.6625C39.3009 32.6118 39.2882 32.5611 39.2629 32.5105C39.0602 32.7132 38.8322 32.9031 38.5789 33.0805C38.3256 33.2578 38.0596 33.4098 37.7809 33.5365C37.2236 33.8405 36.6536 34.0811 36.0709 34.2585C35.4882 34.4105 34.8929 34.5371 34.2849 34.6385C34.1582 34.6638 34.0316 34.6765 33.9049 34.6765C33.7782 34.7018 33.6516 34.7145 33.5249 34.7145C33.4489 34.7145 33.3729 34.7145 33.2969 34.7145C33.2462 34.7145 33.1956 34.7271 33.1449 34.7525C33.0689 34.7525 32.9929 34.7525 32.9169 34.7525C32.8662 34.7525 32.8156 34.7525 32.7649 34.7525H31.2449C30.6116 34.7525 30.0036 34.7018 29.4209 34.6005C28.8636 34.4991 28.3316 34.3598 27.8249 34.1825C27.3182 33.9798 26.8876 33.7138 26.5329 33.3845C26.2036 33.0551 25.9502 32.6878 25.7729 32.2825C25.6716 32.0798 25.5829 31.8771 25.5069 31.6745C25.4562 31.4465 25.4056 31.2438 25.3549 31.0665C25.3296 30.8638 25.3042 30.6738 25.2789 30.4965C25.2536 30.2938 25.2409 30.1038 25.2409 29.9265C25.2409 28.8878 25.5449 27.9378 26.1529 27.0765C26.7862 26.2151 27.7236 25.4678 28.9649 24.8345C30.2316 24.1758 31.6629 23.5678 33.2589 23.0105C34.8802 22.4531 36.6789 21.9465 38.6549 21.4905V21.4145ZM38.6929 23.6185C37.9076 23.8718 37.1856 24.1378 36.5269 24.4165C35.8936 24.6698 35.2982 24.9611 34.7409 25.2905C34.0316 25.7211 33.4236 26.1645 32.9169 26.6205C32.4102 27.0765 32.0176 27.5325 31.7389 27.9885C31.6376 28.1405 31.5489 28.2925 31.4729 28.4445C31.4222 28.5965 31.3716 28.7485 31.3209 28.9005C31.2702 29.0525 31.2322 29.2045 31.2069 29.3565C31.1816 29.4831 31.1689 29.6098 31.1689 29.7365C31.1689 29.8885 31.1816 30.0405 31.2069 30.1925C31.2322 30.3191 31.2702 30.4458 31.3209 30.5725C31.3716 30.7245 31.4349 30.8638 31.5109 30.9905C31.5869 31.1171 31.6756 31.2438 31.7769 31.3705C31.9289 31.5478 32.1062 31.7125 32.3089 31.8645C32.5116 31.9911 32.7269 32.1051 32.9549 32.2065C33.0816 32.2571 33.1956 32.2951 33.2969 32.3205C33.4236 32.3458 33.5502 32.3711 33.6769 32.3965C33.7276 32.3965 33.7656 32.3965 33.7909 32.3965C33.8416 32.3711 33.8922 32.3458 33.9429 32.3205C33.9682 32.3205 33.9936 32.3205 34.0189 32.3205C34.0442 32.2951 34.0696 32.2825 34.0949 32.2825C34.6776 32.1305 35.2222 31.8645 35.7289 31.4845C36.2609 31.0791 36.7676 30.5598 37.2489 29.9265C37.7302 29.2678 38.0849 28.4825 38.3129 27.5705C38.5662 26.6585 38.6929 25.6198 38.6929 24.4545C38.6929 24.3531 38.6929 24.2645 38.6929 24.1885C38.6929 24.0871 38.6929 23.9858 38.6929 23.8845C38.6929 23.8338 38.6929 23.7958 38.6929 23.7705C38.6929 23.7198 38.6929 23.6818 38.6929 23.6565V23.6185Z" fill="#744E99"/>
<path d="M55.323 17.4625C55.6016 17.2091 55.9056 16.9558 56.235 16.7025C56.5896 16.4238 56.995 16.1578 57.451 15.9045C57.8816 15.6765 58.3883 15.4991 58.971 15.3725C59.579 15.2458 60.2503 15.1825 60.985 15.1825L62.505 15.1445H62.657H62.885L63.037 15.1825H63.227L62.315 19.6285H60.795C60.643 19.5018 60.4783 19.3751 60.301 19.2485C60.1236 19.1218 59.9336 19.0078 59.731 18.9065C59.6296 18.8558 59.5156 18.8178 59.389 18.7925C59.2876 18.7671 59.1736 18.7418 59.047 18.7165C58.6416 18.8178 58.2616 18.9951 57.907 19.2485C57.5523 19.5018 57.1976 19.8438 56.843 20.2745C56.463 20.7305 56.1843 21.3131 56.007 22.0225C55.8296 22.7065 55.741 23.5298 55.741 24.4925V31.9025C55.741 32.2571 55.779 32.5485 55.855 32.7765C55.931 32.9791 56.0576 33.1438 56.235 33.2705C56.387 33.3971 56.5516 33.4985 56.729 33.5745C56.9316 33.6505 57.1216 33.7011 57.299 33.7265C57.3243 33.7265 57.3496 33.7391 57.375 33.7645C57.4003 33.7645 57.4256 33.7645 57.451 33.7645C57.451 33.7645 57.4636 33.7645 57.489 33.7645C57.5143 33.7645 57.5396 33.7645 57.565 33.7645C57.5903 33.7645 57.6156 33.7645 57.641 33.7645C57.6663 33.7645 57.6916 33.7645 57.717 33.7645C57.717 33.7645 57.7296 33.7645 57.755 33.7645C57.7803 33.7645 57.8056 33.7645 57.831 33.7645V34.2965H56.311H47.913V33.6885C48.217 33.7391 48.4956 33.7391 48.749 33.6885C49.0023 33.6125 49.2303 33.4985 49.433 33.3465C49.6356 33.1945 49.7876 33.0045 49.889 32.7765C49.9903 32.5485 50.041 32.2825 50.041 31.9785V18.7545C50.041 18.4251 49.9776 18.1338 49.851 17.8805C49.7243 17.6271 49.547 17.4118 49.319 17.2345C49.0656 17.0825 48.8123 16.9685 48.559 16.8925C48.3056 16.7911 48.0396 16.7278 47.761 16.7025L47.685 16.6645H47.647V16.0565L53.005 15.4485H54.525C54.6516 15.6258 54.753 15.7905 54.829 15.9425C54.9303 16.0945 55.0063 16.2465 55.057 16.3985C55.133 16.5758 55.1836 16.7405 55.209 16.8925C55.2596 17.0445 55.2976 17.1965 55.323 17.3485C55.323 17.3485 55.323 17.3611 55.323 17.3865C55.323 17.3865 55.323 17.3991 55.323 17.4245C55.323 17.4498 55.323 17.4751 55.323 17.5005V17.4625Z" fill="#744E99"/>
<path d="M63.7958 24.7205C63.8718 23.1751 64.1884 21.8071 64.7458 20.6165C65.3284 19.4005 66.1518 18.3745 67.2158 17.5385C68.2798 16.7025 69.3944 16.0691 70.5598 15.6385C71.7251 15.1825 72.9411 14.9418 74.2078 14.9165L75.7278 14.8785H75.8798H76.0698C77.3364 14.9038 78.5524 15.1318 79.7178 15.5625C80.8831 15.9678 81.9851 16.5758 83.0238 17.3865C84.0624 18.1971 84.8604 19.2231 85.4178 20.4645C85.9751 21.7058 86.2664 23.1498 86.2918 24.7965V24.8345V24.8725V24.9485V25.0245C86.2918 26.7218 86.0258 28.2038 85.4938 29.4705C84.9618 30.7118 84.1638 31.7505 83.0998 32.5865C82.0104 33.4225 80.8704 34.0305 79.6798 34.4105C78.4891 34.8158 77.2478 35.0185 75.9558 35.0185H74.4358H74.3218H74.2078C72.8904 34.9931 71.6364 34.7778 70.4458 34.3725C69.2551 33.9671 68.1151 33.3338 67.0258 32.4725C65.9364 31.6111 65.1258 30.5471 64.5938 29.2805C64.0618 27.9885 63.7958 26.4938 63.7958 24.7965V24.7205ZM80.2878 24.4165C80.2118 23.2511 80.0091 22.2378 79.6798 21.3765C79.3504 20.4898 78.8818 19.7551 78.2738 19.1725C77.7418 18.6658 77.1844 18.2605 76.6018 17.9565C76.0444 17.6271 75.4618 17.4118 74.8538 17.3105C74.2711 17.4118 73.7011 17.6018 73.1438 17.8805C72.6118 18.1591 72.0924 18.5391 71.5858 19.0205C70.9778 19.5778 70.5218 20.2871 70.2178 21.1485C69.9391 21.9845 69.7998 22.9598 69.7998 24.0745C69.7998 24.1758 69.7998 24.2771 69.7998 24.3785C69.7998 24.4545 69.7998 24.5305 69.7998 24.6065C69.7998 24.6318 69.7998 24.6698 69.7998 24.7205C69.7998 24.7711 69.7998 24.8091 69.7998 24.8345C69.7998 24.8851 69.7998 24.9358 69.7998 24.9865C69.8251 25.0118 69.8378 25.0498 69.8378 25.1005C69.9644 26.4938 70.2051 27.6971 70.5598 28.7105C70.9398 29.7238 71.4084 30.5345 71.9658 31.1425C72.4471 31.6238 72.9284 32.0165 73.4098 32.3205C73.9164 32.6245 74.4358 32.8145 74.9678 32.8905C75.6011 32.7891 76.1964 32.5865 76.7538 32.2825C77.3364 31.9785 77.8938 31.5478 78.4258 30.9905C79.0844 30.3318 79.5658 29.5718 79.8698 28.7105C80.1991 27.8238 80.3638 26.8358 80.3638 25.7465C80.3638 25.6958 80.3638 25.6451 80.3638 25.5945C80.3638 25.5438 80.3638 25.4931 80.3638 25.4425C80.3384 25.3918 80.3258 25.3411 80.3258 25.2905C80.3258 25.2398 80.3258 25.1891 80.3258 25.1385C80.3258 25.0878 80.3258 25.0371 80.3258 24.9865C80.3258 24.9358 80.3258 24.8725 80.3258 24.7965C80.3004 24.7458 80.2878 24.6951 80.2878 24.6445C80.2878 24.5938 80.2878 24.5431 80.2878 24.4925V24.4165Z" fill="#744E99"/>
<path d="M95.5751 16.0565H98.007C98.0324 16.0818 98.0577 16.0945 98.083 16.0945C98.1084 16.0945 98.1337 16.0818 98.159 16.0565C98.159 16.0565 98.1717 16.0565 98.1971 16.0565C98.2224 16.0565 98.2477 16.0565 98.273 16.0565C98.4757 16.0058 98.7037 15.9425 98.957 15.8665C99.2104 15.7905 99.4764 15.6765 99.7551 15.5245L101.275 15.4865L99.7551 18.4505H98.235C98.159 18.3998 98.083 18.3491 98.007 18.2985C97.9311 18.2478 97.8677 18.2098 97.817 18.1845C97.7411 18.1338 97.6651 18.0958 97.5891 18.0705C97.5131 18.0451 97.437 18.0198 97.361 17.9945C97.209 17.9691 97.0571 17.9565 96.9051 17.9565C96.7531 17.9311 96.6011 17.9185 96.4491 17.9185L95.5751 17.8805V28.5965C95.5751 29.3565 95.6384 30.0025 95.765 30.5345C95.917 31.0411 96.1324 31.4338 96.411 31.7125C96.5884 31.8898 96.7784 32.0418 96.981 32.1685C97.1837 32.2951 97.3864 32.3838 97.5891 32.4345C97.817 32.3838 98.0324 32.3205 98.235 32.2445C98.463 32.1431 98.6784 32.0418 98.8811 31.9405C99.1597 31.7631 99.4004 31.5858 99.6031 31.4085C99.8057 31.2058 99.9577 31.0031 100.059 30.8005L101.579 30.7625L102.149 30.9905L100.667 34.2965C100.236 34.4231 99.8184 34.5245 99.413 34.6005C99.0331 34.6765 98.6657 34.7398 98.3111 34.7905C97.9564 34.8411 97.6144 34.8791 97.285 34.9045C96.9557 34.9551 96.6517 34.9805 96.373 34.9805H94.8531C93.8397 34.9805 92.991 34.8285 92.307 34.5245C91.6484 34.2458 91.1544 33.8151 90.8251 33.2325C90.4957 32.6498 90.2551 31.9785 90.1031 31.2185C89.951 30.4585 89.875 29.6098 89.875 28.6725V17.8425H87.481V17.2345C88.013 17.1838 88.4691 17.0318 88.8491 16.7785C89.229 16.4998 89.5457 16.1451 89.799 15.7145C90.0524 15.2838 90.2551 14.8405 90.4071 14.3845C90.5591 13.9031 90.6477 13.4218 90.673 12.9405V12.6745C90.673 12.6745 90.673 12.6618 90.673 12.6365C90.673 12.6111 90.673 12.5858 90.673 12.5605C90.673 12.5605 90.673 12.5478 90.673 12.5225C90.673 12.4971 90.673 12.4718 90.673 12.4465C90.673 12.4211 90.673 12.3958 90.673 12.3705C90.673 12.3451 90.673 12.3198 90.673 12.2945C90.673 12.2945 90.673 12.2818 90.673 12.2565C90.673 12.2311 90.673 12.2058 90.673 12.1805C90.673 12.1551 90.673 12.1298 90.673 12.1045C90.673 12.0791 90.673 12.0538 90.673 12.0285C90.6477 12.0031 90.635 11.9778 90.635 11.9525C90.635 11.9271 90.635 11.9018 90.635 11.8765C90.635 11.8258 90.635 11.7751 90.635 11.7245C90.635 11.6738 90.635 11.6231 90.635 11.5725C90.6097 11.5471 90.597 11.5091 90.597 11.4585C90.597 11.4078 90.597 11.3571 90.597 11.3065C90.5717 11.2051 90.5464 11.1165 90.521 11.0405C90.521 10.9391 90.5084 10.8378 90.483 10.7365L94.055 8.87448H95.5751V16.0565Z" fill="#744E99"/>
<path d="M118.389 9.17848H127.661V9.74848C127.205 9.79915 126.825 9.88781 126.521 10.0145C126.217 10.1411 125.977 10.3438 125.799 10.6225C125.622 10.8758 125.483 11.1671 125.381 11.4965C125.305 11.8258 125.267 12.1678 125.267 12.5225V30.7245C125.267 31.2058 125.331 31.6365 125.457 32.0165C125.609 32.3711 125.812 32.6878 126.065 32.9665C126.344 33.2198 126.635 33.4225 126.939 33.5745C127.243 33.7011 127.585 33.7645 127.965 33.7645V34.2965H126.445H116.869V33.6885C117.325 33.7391 117.705 33.7011 118.009 33.5745C118.313 33.4225 118.554 33.2198 118.731 32.9665C118.909 32.6878 119.035 32.3711 119.111 32.0165C119.213 31.6618 119.263 31.2565 119.263 30.8005V12.7505C119.263 12.3451 119.2 11.9651 119.073 11.6105C118.972 11.2558 118.82 10.9391 118.617 10.6605C118.415 10.3818 118.161 10.1791 117.857 10.0525C117.579 9.90048 117.249 9.82448 116.869 9.82448V9.17848H118.389Z" fill="#744E99"/>
<path d="M137.711 18.0705C138.192 17.6651 138.661 17.2978 139.117 16.9685C139.598 16.6138 140.08 16.3225 140.561 16.0945C141.22 15.7398 141.853 15.4865 142.461 15.3345C143.069 15.1571 143.652 15.0558 144.209 15.0305L145.729 14.9925C146.362 15.0178 146.932 15.1318 147.439 15.3345C147.971 15.5371 148.44 15.8538 148.845 16.2845C149.124 16.5885 149.364 16.9305 149.567 17.3105C149.77 17.6651 149.922 18.0705 150.023 18.5265C150.58 18.0958 151.112 17.7158 151.619 17.3865C152.151 17.0318 152.658 16.7278 153.139 16.4745C153.823 16.1451 154.469 15.9045 155.077 15.7525C155.71 15.5751 156.293 15.4865 156.825 15.4865L158.345 15.4485C159.029 15.4738 159.637 15.6005 160.169 15.8285C160.701 16.0565 161.157 16.4111 161.537 16.8925C161.917 17.3738 162.208 17.9311 162.411 18.5645C162.614 19.1725 162.715 19.8565 162.715 20.6165V31.2945C162.715 31.7758 162.766 32.1811 162.867 32.5105C162.994 32.8145 163.184 33.0551 163.437 33.2325C163.665 33.4098 163.906 33.5491 164.159 33.6505C164.438 33.7265 164.716 33.7645 164.995 33.7645L165.033 33.7265H165.109V34.2965H163.589H154.925V33.6885C155.28 33.7391 155.596 33.7391 155.875 33.6885C156.179 33.6125 156.445 33.4985 156.673 33.3465C156.876 33.2198 157.028 32.9918 157.129 32.6625C157.256 32.3331 157.319 31.9025 157.319 31.3705V22.0225C157.319 21.3891 157.256 20.8445 157.129 20.3885C157.002 19.9071 156.8 19.5271 156.521 19.2485C156.344 19.0458 156.154 18.8938 155.951 18.7925C155.748 18.6658 155.533 18.5645 155.305 18.4885C155.28 18.4885 155.242 18.5011 155.191 18.5265C155.166 18.5265 155.128 18.5391 155.077 18.5645C155.001 18.5898 154.925 18.6151 154.849 18.6405C154.773 18.6405 154.697 18.6658 154.621 18.7165C154.165 18.8938 153.722 19.1218 153.291 19.4005C152.886 19.6538 152.493 19.9705 152.113 20.3505C151.733 20.7305 151.416 21.1231 151.163 21.5285C150.91 21.9085 150.72 22.3138 150.593 22.7445C150.568 22.8205 150.542 22.8965 150.517 22.9725C150.517 23.0485 150.517 23.1245 150.517 23.2005C150.517 23.2258 150.504 23.2638 150.479 23.3145C150.479 23.3398 150.479 23.3651 150.479 23.3905C150.479 23.4411 150.479 23.4791 150.479 23.5045C150.479 23.5298 150.479 23.5678 150.479 23.6185V31.2945C150.479 31.8518 150.53 32.3078 150.631 32.6625C150.758 32.9918 150.948 33.2198 151.201 33.3465C151.454 33.4985 151.72 33.6125 151.999 33.6885C152.278 33.7391 152.569 33.7645 152.873 33.7645V34.2965H151.353H142.651V33.6885C142.955 33.7391 143.234 33.7265 143.487 33.6505C143.74 33.5745 143.956 33.4478 144.133 33.2705C144.336 33.0931 144.488 32.8525 144.589 32.5485C144.69 32.2191 144.741 31.8265 144.741 31.3705V22.0225C144.741 21.3638 144.678 20.7938 144.551 20.3125C144.424 19.8058 144.222 19.4005 143.943 19.0965C143.766 18.8938 143.563 18.7291 143.335 18.6025C143.132 18.4505 142.904 18.3365 142.651 18.2605C142.55 18.2858 142.448 18.3111 142.347 18.3365C142.271 18.3365 142.182 18.3618 142.081 18.4125C141.625 18.5898 141.182 18.8305 140.751 19.1345C140.32 19.4131 139.902 19.7425 139.497 20.1225C139.092 20.5025 138.762 20.9078 138.509 21.3385C138.281 21.7438 138.104 22.1618 137.977 22.5925C137.952 22.6431 137.926 22.7065 137.901 22.7825C137.901 22.8331 137.901 22.8838 137.901 22.9345C137.901 23.0105 137.901 23.0865 137.901 23.1625C137.901 23.2131 137.901 23.2638 137.901 23.3145V31.5985C137.901 32.0291 137.952 32.3838 138.053 32.6625C138.154 32.9411 138.294 33.1565 138.471 33.3085C138.674 33.4605 138.902 33.5745 139.155 33.6505C139.408 33.7265 139.687 33.7645 139.991 33.7645V34.2965H138.471H130.073V33.6885C130.453 33.7391 130.77 33.7265 131.023 33.6505C131.302 33.5745 131.53 33.4478 131.707 33.2705C131.859 33.0931 131.973 32.8525 132.049 32.5485C132.15 32.2191 132.201 31.8265 132.201 31.3705V19.9325C132.201 19.4511 132.15 19.0205 132.049 18.6405C131.973 18.2605 131.859 17.9565 131.707 17.7285C131.555 17.5005 131.39 17.3231 131.213 17.1965C131.061 17.0445 130.896 16.9305 130.719 16.8545C130.618 16.8038 130.529 16.7785 130.453 16.7785C130.377 16.7531 130.301 16.7405 130.225 16.7405C130.2 16.7405 130.162 16.7405 130.111 16.7405C130.086 16.7405 130.048 16.7278 129.997 16.7025C129.972 16.7025 129.934 16.7025 129.883 16.7025C129.858 16.7025 129.832 16.7025 129.807 16.7025V16.0565L135.165 15.4485H136.685C136.736 15.5498 136.774 15.6511 136.799 15.7525C136.85 15.8285 136.9 15.9045 136.951 15.9805C136.976 16.0818 137.014 16.1831 137.065 16.2845C137.116 16.3605 137.154 16.4491 137.179 16.5505C137.23 16.6518 137.268 16.7531 137.293 16.8545C137.344 16.9558 137.382 17.0445 137.407 17.1205C137.458 17.2218 137.496 17.3231 137.521 17.4245C137.572 17.5258 137.61 17.6271 137.635 17.7285C137.635 17.7538 137.635 17.7918 137.635 17.8425C137.66 17.8678 137.673 17.8931 137.673 17.9185C137.673 17.9438 137.673 17.9818 137.673 18.0325C137.698 18.0578 137.711 18.0831 137.711 18.1085V18.0705Z" fill="#744E99"/>
<path d="M175.01 34.2965V39.3885V39.4265V39.5025C175.01 39.7811 175.048 40.0471 175.124 40.3005C175.226 40.5538 175.365 40.8071 175.542 41.0605C175.694 41.2885 175.897 41.4658 176.15 41.5925C176.429 41.7192 176.746 41.7825 177.1 41.7825V42.3905H175.58H166.916V41.7825H166.954H167.03C167.309 41.7571 167.575 41.6938 167.828 41.5925C168.082 41.5165 168.335 41.3898 168.588 41.2125C168.816 41.0351 168.994 40.7945 169.12 40.4905C169.247 40.1865 169.31 39.8191 169.31 39.3885V19.9325C169.31 19.1471 169.26 18.5138 169.158 18.0325C169.082 17.5258 168.956 17.1711 168.778 16.9685C168.601 16.7658 168.36 16.6011 168.056 16.4745C167.778 16.3225 167.423 16.2085 166.992 16.1325L166.916 16.0945V15.4485H168.436H179.798C181.445 15.4991 182.889 15.7778 184.13 16.2845C185.397 16.7658 186.474 17.5005 187.36 18.4885C188.247 19.4765 188.918 20.5025 189.374 21.5665C189.856 22.6305 190.109 23.7578 190.134 24.9485V25.1005V25.2525C190.134 26.4431 189.919 27.5831 189.488 28.6725C189.083 29.7365 188.437 30.7498 187.55 31.7125C186.689 32.6498 185.587 33.3591 184.244 33.8405C182.902 34.2965 181.331 34.5245 179.532 34.5245H178.012C177.683 34.5245 177.328 34.5118 176.948 34.4865C176.594 34.4865 176.226 34.4611 175.846 34.4105C175.77 34.4105 175.694 34.3978 175.618 34.3725C175.568 34.3725 175.504 34.3725 175.428 34.3725C175.352 34.3471 175.276 34.3218 175.2 34.2965C175.15 34.2965 175.086 34.2965 175.01 34.2965ZM174.706 17.2345V30.1165C174.706 30.5471 174.795 30.9145 174.972 31.2185C175.15 31.4972 175.403 31.7378 175.732 31.9405C176.011 32.0925 176.302 32.2191 176.606 32.3205C176.91 32.3965 177.227 32.4598 177.556 32.5105C177.582 32.5105 177.594 32.5105 177.594 32.5105C177.62 32.5105 177.632 32.5105 177.632 32.5105C177.784 32.4851 177.936 32.4598 178.088 32.4345C178.24 32.3838 178.405 32.3458 178.582 32.3205C179.216 32.1685 179.824 31.9278 180.406 31.5985C180.989 31.2691 181.559 30.8638 182.116 30.3825C182.648 29.8758 183.066 29.2805 183.37 28.5965C183.674 27.9125 183.864 27.1398 183.94 26.2785V26.0885L183.978 25.8985V25.7465V25.5565C183.978 24.3405 183.801 23.2385 183.446 22.2505C183.117 21.2371 182.623 20.3505 181.964 19.5905C181.28 18.8305 180.558 18.2605 179.798 17.8805C179.038 17.5005 178.228 17.3105 177.366 17.3105L174.706 17.2345Z" fill="#744E99"/>
<path d="M207.094 32.0925C206.916 32.2445 206.739 32.3838 206.562 32.5105C206.41 32.6118 206.245 32.7258 206.068 32.8525C205.586 33.1565 205.105 33.4351 204.624 33.6885C204.168 33.9165 203.686 34.1065 203.18 34.2585C202.926 34.3091 202.673 34.3598 202.42 34.4105C202.192 34.4865 201.964 34.5498 201.736 34.6005C201.508 34.6511 201.28 34.6891 201.052 34.7145C200.824 34.7398 200.596 34.7525 200.368 34.7525H198.848C198.214 34.7525 197.632 34.6511 197.1 34.4485C196.593 34.2711 196.124 34.0051 195.694 33.6505C195.288 33.2705 194.972 32.7385 194.744 32.0545C194.541 31.3705 194.44 30.5471 194.44 29.5845V19.3245C194.44 18.9191 194.389 18.5645 194.288 18.2605C194.212 17.9565 194.098 17.7158 193.946 17.5385C193.768 17.3358 193.591 17.1711 193.414 17.0445C193.262 16.9178 193.084 16.8291 192.882 16.7785C192.856 16.7785 192.831 16.7785 192.806 16.7785C192.78 16.7785 192.755 16.7658 192.73 16.7405C192.704 16.7405 192.679 16.7405 192.654 16.7405C192.628 16.7405 192.603 16.7405 192.578 16.7405L192.35 16.6645V16.0565L198.658 15.4485H200.178V27.7225C200.178 28.5331 200.241 29.2171 200.368 29.7745C200.494 30.3065 200.684 30.7245 200.938 31.0285C201.115 31.2311 201.305 31.4085 201.508 31.5605C201.71 31.6871 201.926 31.7758 202.154 31.8265C202.255 31.8011 202.369 31.7758 202.496 31.7505C202.622 31.6998 202.749 31.6491 202.876 31.5985C203.332 31.3958 203.762 31.1298 204.168 30.8005C204.598 30.4711 205.016 30.0785 205.422 29.6225C205.827 29.1665 206.156 28.6978 206.41 28.2165C206.663 27.7351 206.84 27.2538 206.942 26.7725C206.942 26.7471 206.942 26.7218 206.942 26.6965C206.942 26.6711 206.954 26.6331 206.98 26.5825C206.98 26.5571 206.98 26.5318 206.98 26.5065C206.98 26.4558 206.98 26.4178 206.98 26.3925C206.98 26.3671 206.98 26.3418 206.98 26.3165C206.98 26.2911 206.992 26.2531 207.018 26.2025C207.018 26.1771 207.018 26.1518 207.018 26.1265C207.018 26.0758 207.018 26.0378 207.018 26.0125V18.7545C207.018 18.5011 206.967 18.2605 206.866 18.0325C206.79 17.8045 206.676 17.6018 206.524 17.4245C206.346 17.2471 206.169 17.1078 205.992 17.0065C205.84 16.8798 205.662 16.8038 205.46 16.7785C205.434 16.7785 205.409 16.7785 205.384 16.7785C205.358 16.7785 205.333 16.7658 205.308 16.7405C205.282 16.7405 205.257 16.7405 205.232 16.7405C205.206 16.7405 205.181 16.7405 205.156 16.7405L204.928 16.6645V16.0565L211.198 15.4485H212.718V31.2945C212.718 31.7251 212.756 32.0925 212.832 32.3965C212.908 32.7005 213.034 32.9538 213.212 33.1565C213.364 33.3591 213.579 33.5111 213.858 33.6125C214.136 33.7138 214.466 33.7645 214.846 33.7645V34.2965H213.326H207.626C207.6 34.2458 207.575 34.1825 207.55 34.1065C207.524 34.0305 207.499 33.9418 207.474 33.8405C207.448 33.7645 207.423 33.6885 207.398 33.6125C207.372 33.5111 207.36 33.4098 207.36 33.3085C207.309 33.1058 207.258 32.9158 207.208 32.7385C207.182 32.5358 207.144 32.3458 207.094 32.1685C207.094 32.1685 207.094 32.1558 207.094 32.1305V32.0925Z" fill="#744E99"/>
<path d="M216.643 9.17848L223.217 8.26648H224.737V31.2945C224.737 31.7758 224.788 32.1685 224.889 32.4725C224.99 32.7765 225.13 32.9918 225.307 33.1185C225.51 33.2705 225.725 33.3971 225.953 33.4985C226.181 33.5998 226.447 33.6758 226.751 33.7265H226.827V34.2965H225.307H216.909V33.6885H218.429L218.467 33.7265H216.947L216.985 33.6885C217.264 33.6631 217.53 33.5998 217.783 33.4985C218.036 33.3971 218.252 33.2705 218.429 33.1185C218.632 32.9918 218.784 32.7892 218.885 32.5105C218.986 32.2065 219.037 31.8265 219.037 31.3705V11.8385C219.037 11.5091 218.974 11.2305 218.847 11.0025C218.72 10.7491 218.543 10.5338 218.315 10.3565C218.062 10.2045 217.808 10.0905 217.555 10.0145C217.302 9.91315 217.036 9.84981 216.757 9.82448L216.681 9.78648H216.643V9.17848Z" fill="#744E99"/>
<path d="M245.12 15.4485L245.424 21.4145L244.816 21.7185H243.296V21.6425V21.5285C243.296 20.9458 243.17 20.4265 242.916 19.9705C242.688 19.4891 242.321 19.0838 241.814 18.7545C241.308 18.3998 240.776 18.1085 240.218 17.8805C239.661 17.6525 239.091 17.4751 238.508 17.3485C238.331 17.2978 238.154 17.2725 237.976 17.2725C237.799 17.2471 237.622 17.2218 237.444 17.1965C237.419 17.1965 237.394 17.1965 237.368 17.1965C237.343 17.1965 237.33 17.1965 237.33 17.1965C237.305 17.1965 237.28 17.1965 237.254 17.1965C237.229 17.1711 237.204 17.1585 237.178 17.1585C237.077 17.1838 236.963 17.2091 236.836 17.2345C236.735 17.2345 236.634 17.2471 236.532 17.2725C236.33 17.2978 236.14 17.3485 235.962 17.4245C235.811 17.4751 235.671 17.5385 235.544 17.6145C235.443 17.6905 235.354 17.7791 235.278 17.8805C235.202 17.9565 235.139 18.0578 235.088 18.1845C235.038 18.2858 235 18.3998 234.974 18.5265C234.949 18.6278 234.936 18.7418 234.936 18.8685C234.936 18.8938 234.936 18.9318 234.936 18.9825C234.936 19.0078 234.936 19.0331 234.936 19.0585C234.936 19.1091 234.936 19.1471 234.936 19.1725C234.962 19.1978 234.974 19.2358 234.974 19.2865C234.974 19.3625 234.987 19.4385 235.012 19.5145C235.038 19.5651 235.063 19.6158 235.088 19.6665C235.164 19.8945 235.291 20.1098 235.468 20.3125C235.646 20.4898 235.861 20.6798 236.114 20.8825C236.368 21.0598 236.672 21.2245 237.026 21.3765C237.381 21.5285 237.786 21.6678 238.242 21.7945C239.661 22.1238 240.902 22.5038 241.966 22.9345C243.056 23.3398 243.993 23.7958 244.778 24.3025C245.564 24.7838 246.146 25.3411 246.526 25.9745C246.932 26.6078 247.134 27.3171 247.134 28.1025C247.134 28.3558 247.109 28.6345 247.058 28.9385C247.008 29.2171 246.944 29.5085 246.868 29.8125C246.767 30.1165 246.653 30.4205 246.526 30.7245C246.4 31.0285 246.235 31.3451 246.032 31.6745C245.728 32.2318 245.336 32.7132 244.854 33.1185C244.398 33.4985 243.841 33.8151 243.182 34.0685C242.524 34.2711 241.827 34.4358 241.092 34.5625C240.383 34.6891 239.623 34.7525 238.812 34.7525H237.292C237.216 34.7525 237.128 34.7525 237.026 34.7525C236.95 34.7525 236.874 34.7525 236.798 34.7525C236.697 34.7271 236.596 34.7145 236.494 34.7145C236.418 34.7145 236.342 34.7145 236.266 34.7145C236.089 34.6891 235.912 34.6638 235.734 34.6385C235.582 34.6385 235.43 34.6385 235.278 34.6385C235.152 34.6131 235.012 34.5878 234.86 34.5625C234.734 34.5371 234.607 34.5245 234.48 34.5245C234.354 34.4991 234.227 34.4738 234.1 34.4485C233.974 34.4231 233.847 34.3978 233.72 34.3725C233.467 34.3471 233.214 34.3091 232.96 34.2585C232.707 34.2078 232.466 34.1445 232.238 34.0685C232.112 34.0178 231.972 33.9798 231.82 33.9545C231.668 33.9038 231.516 33.8658 231.364 33.8405C231.339 33.8405 231.314 33.8405 231.288 33.8405C231.288 33.8405 231.276 33.8278 231.25 33.8025C231.225 33.8025 231.2 33.8025 231.174 33.8025C231.174 33.8025 231.162 33.8025 231.136 33.8025C231.111 33.8025 231.098 33.8025 231.098 33.8025C230.997 33.8278 230.883 33.8658 230.756 33.9165C230.655 33.9671 230.554 34.0178 230.452 34.0685L228.932 34.0305L228.666 26.5065L229.236 26.2025H230.756C230.807 27.2411 231.01 28.1531 231.364 28.9385C231.719 29.6985 232.226 30.3318 232.884 30.8385C233.543 31.3451 234.227 31.7505 234.936 32.0545C235.671 32.3585 236.431 32.5485 237.216 32.6245C237.242 32.6245 237.254 32.6245 237.254 32.6245C237.28 32.6245 237.305 32.6245 237.33 32.6245C237.356 32.6498 237.368 32.6625 237.368 32.6625C237.394 32.6625 237.419 32.6625 237.444 32.6625C237.52 32.6625 237.596 32.6625 237.672 32.6625C237.774 32.6371 237.862 32.6245 237.938 32.6245C238.014 32.5991 238.09 32.5865 238.166 32.5865C238.268 32.5611 238.356 32.5358 238.432 32.5105C238.711 32.4598 238.977 32.3838 239.23 32.2825C239.509 32.1811 239.775 32.0798 240.028 31.9785C240.282 31.8518 240.497 31.7125 240.674 31.5605C240.877 31.3831 241.029 31.2058 241.13 31.0285C241.257 30.8258 241.346 30.6231 241.396 30.4205C241.447 30.2178 241.472 30.0025 241.472 29.7745C241.472 29.7491 241.472 29.7238 241.472 29.6985C241.472 29.6731 241.472 29.6478 241.472 29.6225C241.447 29.6225 241.434 29.6098 241.434 29.5845C241.434 29.5591 241.434 29.5338 241.434 29.5085C241.434 29.4831 241.434 29.4578 241.434 29.4325C241.434 29.4071 241.434 29.3818 241.434 29.3565C241.409 29.3311 241.396 29.3058 241.396 29.2805C241.396 29.2551 241.396 29.2298 241.396 29.2045C241.32 28.9258 241.206 28.6725 241.054 28.4445C240.902 28.1911 240.712 27.9378 240.484 27.6845C240.231 27.4311 239.94 27.2158 239.61 27.0385C239.306 26.8358 238.939 26.6838 238.508 26.5825C237.166 26.3038 235.937 25.9871 234.822 25.6325C233.733 25.2525 232.745 24.8471 231.858 24.4165C230.997 23.9858 230.338 23.4031 229.882 22.6685C229.452 21.9338 229.236 21.0471 229.236 20.0085C229.236 19.3751 229.388 18.7798 229.692 18.2225C229.996 17.6398 230.452 17.0825 231.06 16.5505C231.668 16.0185 232.403 15.6258 233.264 15.3725C234.151 15.0938 235.139 14.9545 236.228 14.9545L237.748 14.9165C237.951 14.9418 238.154 14.9671 238.356 14.9925C238.559 14.9925 238.774 15.0051 239.002 15.0305C239.205 15.0558 239.42 15.0811 239.648 15.1065C239.876 15.1318 240.104 15.1698 240.332 15.2205C240.484 15.2458 240.636 15.2711 240.788 15.2965C240.94 15.2965 241.092 15.3218 241.244 15.3725C241.32 15.3978 241.396 15.4231 241.472 15.4485C241.548 15.4485 241.624 15.4485 241.7 15.4485C241.751 15.4738 241.814 15.4991 241.89 15.5245C241.966 15.5245 242.042 15.5245 242.118 15.5245C242.321 15.5751 242.524 15.6258 242.726 15.6765C242.954 15.7018 243.157 15.7398 243.334 15.7905C243.334 15.7905 243.347 15.7905 243.372 15.7905C243.423 15.7651 243.448 15.7398 243.448 15.7145C243.474 15.6891 243.499 15.6638 243.524 15.6385C243.55 15.6131 243.562 15.6005 243.562 15.6005C243.588 15.5751 243.6 15.5498 243.6 15.5245V15.4485H245.12Z" fill="#744E99"/>
<path d="M249.306 24.7205C249.382 23.1751 249.698 21.8071 250.256 20.6165C250.838 19.4005 251.662 18.3745 252.726 17.5385C253.79 16.7025 254.904 16.0691 256.07 15.6385C257.235 15.1825 258.451 14.9418 259.718 14.9165L261.238 14.8785H261.39H261.58C262.846 14.9038 264.062 15.1318 265.228 15.5625C266.393 15.9678 267.495 16.5758 268.534 17.3865C269.572 18.1971 270.37 19.2231 270.928 20.4645C271.485 21.7058 271.776 23.1498 271.802 24.7965V24.8345V24.8725V24.9485V25.0245C271.802 26.7218 271.536 28.2038 271.004 29.4705C270.472 30.7118 269.674 31.7505 268.61 32.5865C267.52 33.4225 266.38 34.0305 265.19 34.4105C263.999 34.8158 262.758 35.0185 261.466 35.0185H259.946H259.832H259.718C258.4 34.9931 257.146 34.7778 255.956 34.3725C254.765 33.9671 253.625 33.3338 252.536 32.4725C251.446 31.6111 250.636 30.5471 250.104 29.2805C249.572 27.9885 249.306 26.4938 249.306 24.7965V24.7205ZM265.798 24.4165C265.722 23.2511 265.519 22.2378 265.19 21.3765C264.86 20.4898 264.392 19.7551 263.784 19.1725C263.252 18.6658 262.694 18.2605 262.112 17.9565C261.554 17.6271 260.972 17.4118 260.364 17.3105C259.781 17.4118 259.211 17.6018 258.654 17.8805C258.122 18.1591 257.602 18.5391 257.096 19.0205C256.488 19.5778 256.032 20.2871 255.728 21.1485C255.449 21.9845 255.31 22.9598 255.31 24.0745C255.31 24.1758 255.31 24.2771 255.31 24.3785C255.31 24.4545 255.31 24.5305 255.31 24.6065C255.31 24.6318 255.31 24.6698 255.31 24.7205C255.31 24.7711 255.31 24.8091 255.31 24.8345C255.31 24.8851 255.31 24.9358 255.31 24.9865C255.335 25.0118 255.348 25.0498 255.348 25.1005C255.474 26.4938 255.715 27.6971 256.07 28.7105C256.45 29.7238 256.918 30.5345 257.476 31.1425C257.957 31.6238 258.438 32.0165 258.92 32.3205C259.426 32.6245 259.946 32.8145 260.478 32.8905C261.111 32.7891 261.706 32.5865 262.264 32.2825C262.846 31.9785 263.404 31.5478 263.936 30.9905C264.594 30.3318 265.076 29.5718 265.38 28.7105C265.709 27.8238 265.874 26.8358 265.874 25.7465C265.874 25.6958 265.874 25.6451 265.874 25.5945C265.874 25.5438 265.874 25.4931 265.874 25.4425C265.848 25.3918 265.836 25.3411 265.836 25.2905C265.836 25.2398 265.836 25.1891 265.836 25.1385C265.836 25.0878 265.836 25.0371 265.836 24.9865C265.836 24.9358 265.836 24.8725 265.836 24.7965C265.81 24.7458 265.798 24.6951 265.798 24.6445C265.798 24.5938 265.798 24.5431 265.798 24.4925V24.4165Z" fill="#744E99"/>
<path d="M9.272 11.4205C8.48667 11.5471 7.77733 11.6991 7.144 11.8765C6.51067 12.0538 5.94067 12.2438 5.434 12.4465C4.77533 12.7251 4.16733 13.2065 3.61 13.8905C3.05267 14.5491 2.55867 15.3978 2.128 16.4365L0.608 16.3985L0 16.0565L1.786 8.57048H3.306C3.458 8.67181 3.61 8.74781 3.762 8.79848C3.914 8.84915 4.05333 8.89981 4.18 8.95048C4.30667 8.97581 4.43333 9.01381 4.56 9.06448C4.712 9.08981 4.83867 9.11515 4.94 9.14048C5.04133 9.16581 5.14267 9.19115 5.244 9.21648C5.34533 9.21648 5.44667 9.22915 5.548 9.25448C5.59867 9.25448 5.64933 9.25448 5.7 9.25448C5.75067 9.25448 5.80133 9.25448 5.852 9.25448L18.544 9.17848C18.848 9.22915 19.1267 9.25448 19.38 9.25448C19.6587 9.22915 19.912 9.20381 20.14 9.17848C20.368 9.15315 20.5707 9.10248 20.748 9.02648C20.9253 8.92515 21.09 8.79848 21.242 8.64648L22.762 8.60848L24.586 16.3605L23.978 16.6265H22.458C22.23 15.7651 21.8753 15.0051 21.394 14.3465C20.9127 13.6878 20.3047 13.1305 19.57 12.6745C19.0127 12.3198 18.3667 12.0411 17.632 11.8385C16.9227 11.6358 16.1373 11.4965 15.276 11.4205V31.2945C15.276 31.7758 15.3267 32.1685 15.428 32.4725C15.5547 32.7765 15.7447 32.9918 15.998 33.1185C16.226 33.2451 16.4667 33.3591 16.72 33.4605C16.9987 33.5618 17.2773 33.6505 17.556 33.7265H17.594H17.67V34.2965H16.15H6.878V33.6885C7.258 33.6631 7.58733 33.5871 7.866 33.4605C8.17 33.3338 8.42333 33.1818 8.626 33.0045C8.82867 32.8018 8.98067 32.5485 9.082 32.2445C9.20867 31.9151 9.272 31.5225 9.272 31.0665V11.4205Z" fill="#744E99"/>
<path d="M38.6549 21.4145V21.3005L38.6929 21.1485V21.0345V20.8825C38.6929 20.2745 38.5916 19.7425 38.3889 19.2865C38.1862 18.8051 37.8949 18.4125 37.5149 18.1085C37.2362 17.8805 36.9196 17.6905 36.5649 17.5385C36.2102 17.3865 35.8302 17.2851 35.4249 17.2345C35.3996 17.2345 35.3616 17.2471 35.3109 17.2725C35.2856 17.2725 35.2602 17.2725 35.2349 17.2725C35.2096 17.2725 35.1716 17.2851 35.1209 17.3105C35.0956 17.3105 35.0702 17.3105 35.0449 17.3105C34.9436 17.3358 34.8422 17.3611 34.7409 17.3865C34.6396 17.3865 34.5509 17.3991 34.4749 17.4245C34.3736 17.4498 34.2722 17.4751 34.1709 17.5005C34.0696 17.5258 33.9682 17.5511 33.8669 17.5765C33.3096 17.7538 32.7522 17.9945 32.1949 18.2985C31.6376 18.5771 31.1056 18.9318 30.5989 19.3625C30.0669 19.7678 29.5982 20.2238 29.1929 20.7305C28.8129 21.2371 28.4836 21.7945 28.2049 22.4025L26.6849 22.3645L27.2929 16.0565H28.8129C28.8636 16.1578 28.9142 16.2338 28.9649 16.2845C29.0156 16.3098 29.0662 16.3478 29.1169 16.3985C29.1169 16.3985 29.1169 16.4111 29.1169 16.4365C29.1422 16.4365 29.1676 16.4491 29.1929 16.4745C29.2182 16.4998 29.2309 16.5251 29.2309 16.5505C29.2562 16.5505 29.2816 16.5505 29.3069 16.5505C29.3576 16.5251 29.4082 16.5125 29.4589 16.5125C29.5349 16.4871 29.5856 16.4618 29.6109 16.4365C29.8136 16.3351 30.0416 16.2338 30.2949 16.1325C30.5736 16.0058 30.8649 15.8918 31.1689 15.7905C31.4476 15.6891 31.7642 15.6005 32.1189 15.5245C32.4736 15.4231 32.8536 15.3218 33.2589 15.2205C33.6896 15.1191 34.1456 15.0431 34.6269 14.9925C35.1336 14.9418 35.6782 14.9165 36.2609 14.9165L37.7809 14.8785C38.6676 14.9038 39.5036 15.0305 40.2889 15.2585C41.0742 15.4611 41.7836 15.7778 42.4169 16.2085C43.0756 16.6138 43.5569 17.1205 43.8609 17.7285C44.1902 18.3111 44.3549 18.9698 44.3549 19.7045V30.1165C44.3549 30.6231 44.3929 31.0538 44.4689 31.4085C44.5449 31.7631 44.6716 32.0798 44.8489 32.3585C45.0009 32.6118 45.1656 32.8271 45.3429 33.0045C45.5456 33.1818 45.7482 33.3338 45.9509 33.4605C46.0522 33.5111 46.1409 33.5618 46.2169 33.6125C46.3182 33.6378 46.4196 33.6631 46.5209 33.6885C46.6222 33.7138 46.7109 33.7391 46.7869 33.7645C46.8882 33.7645 46.9769 33.7645 47.0529 33.7645V34.2965H45.5329H40.1369L40.0609 34.2585L40.0229 34.1825C39.9216 34.0051 39.8202 33.8278 39.7189 33.6505C39.6176 33.4478 39.5289 33.2451 39.4529 33.0425C39.4276 32.9918 39.4022 32.9538 39.3769 32.9285C39.3769 32.8778 39.3769 32.8271 39.3769 32.7765C39.3516 32.7511 39.3262 32.7131 39.3009 32.6625C39.3009 32.6118 39.2882 32.5611 39.2629 32.5105C39.0602 32.7132 38.8322 32.9031 38.5789 33.0805C38.3256 33.2578 38.0596 33.4098 37.7809 33.5365C37.2236 33.8405 36.6536 34.0811 36.0709 34.2585C35.4882 34.4105 34.8929 34.5371 34.2849 34.6385C34.1582 34.6638 34.0316 34.6765 33.9049 34.6765C33.7782 34.7018 33.6516 34.7145 33.5249 34.7145C33.4489 34.7145 33.3729 34.7145 33.2969 34.7145C33.2462 34.7145 33.1956 34.7271 33.1449 34.7525C33.0689 34.7525 32.9929 34.7525 32.9169 34.7525C32.8662 34.7525 32.8156 34.7525 32.7649 34.7525H31.2449C30.6116 34.7525 30.0036 34.7018 29.4209 34.6005C28.8636 34.4991 28.3316 34.3598 27.8249 34.1825C27.3182 33.9798 26.8876 33.7138 26.5329 33.3845C26.2036 33.0551 25.9502 32.6878 25.7729 32.2825C25.6716 32.0798 25.5829 31.8771 25.5069 31.6745C25.4562 31.4465 25.4056 31.2438 25.3549 31.0665C25.3296 30.8638 25.3042 30.6738 25.2789 30.4965C25.2536 30.2938 25.2409 30.1038 25.2409 29.9265C25.2409 28.8878 25.5449 27.9378 26.1529 27.0765C26.7862 26.2151 27.7236 25.4678 28.9649 24.8345C30.2316 24.1758 31.6629 23.5678 33.2589 23.0105C34.8802 22.4531 36.6789 21.9465 38.6549 21.4905V21.4145ZM38.6929 23.6185C37.9076 23.8718 37.1856 24.1378 36.5269 24.4165C35.8936 24.6698 35.2982 24.9611 34.7409 25.2905C34.0316 25.7211 33.4236 26.1645 32.9169 26.6205C32.4102 27.0765 32.0176 27.5325 31.7389 27.9885C31.6376 28.1405 31.5489 28.2925 31.4729 28.4445C31.4222 28.5965 31.3716 28.7485 31.3209 28.9005C31.2702 29.0525 31.2322 29.2045 31.2069 29.3565C31.1816 29.4831 31.1689 29.6098 31.1689 29.7365C31.1689 29.8885 31.1816 30.0405 31.2069 30.1925C31.2322 30.3191 31.2702 30.4458 31.3209 30.5725C31.3716 30.7245 31.4349 30.8638 31.5109 30.9905C31.5869 31.1171 31.6756 31.2438 31.7769 31.3705C31.9289 31.5478 32.1062 31.7125 32.3089 31.8645C32.5116 31.9911 32.7269 32.1051 32.9549 32.2065C33.0816 32.2571 33.1956 32.2951 33.2969 32.3205C33.4236 32.3458 33.5502 32.3711 33.6769 32.3965C33.7276 32.3965 33.7656 32.3965 33.7909 32.3965C33.8416 32.3711 33.8922 32.3458 33.9429 32.3205C33.9682 32.3205 33.9936 32.3205 34.0189 32.3205C34.0442 32.2951 34.0696 32.2825 34.0949 32.2825C34.6776 32.1305 35.2222 31.8645 35.7289 31.4845C36.2609 31.0791 36.7676 30.5598 37.2489 29.9265C37.7302 29.2678 38.0849 28.4825 38.3129 27.5705C38.5662 26.6585 38.6929 25.6198 38.6929 24.4545C38.6929 24.3531 38.6929 24.2645 38.6929 24.1885C38.6929 24.0871 38.6929 23.9858 38.6929 23.8845C38.6929 23.8338 38.6929 23.7958 38.6929 23.7705C38.6929 23.7198 38.6929 23.6818 38.6929 23.6565V23.6185Z" fill="#744E99"/>
<path d="M55.323 17.4625C55.6016 17.2091 55.9056 16.9558 56.235 16.7025C56.5896 16.4238 56.995 16.1578 57.451 15.9045C57.8816 15.6765 58.3883 15.4991 58.971 15.3725C59.579 15.2458 60.2503 15.1825 60.985 15.1825L62.505 15.1445H62.657H62.885L63.037 15.1825H63.227L62.315 19.6285H60.795C60.643 19.5018 60.4783 19.3751 60.301 19.2485C60.1236 19.1218 59.9336 19.0078 59.731 18.9065C59.6296 18.8558 59.5156 18.8178 59.389 18.7925C59.2876 18.7671 59.1736 18.7418 59.047 18.7165C58.6416 18.8178 58.2616 18.9951 57.907 19.2485C57.5523 19.5018 57.1976 19.8438 56.843 20.2745C56.463 20.7305 56.1843 21.3131 56.007 22.0225C55.8296 22.7065 55.741 23.5298 55.741 24.4925V31.9025C55.741 32.2571 55.779 32.5485 55.855 32.7765C55.931 32.9791 56.0576 33.1438 56.235 33.2705C56.387 33.3971 56.5516 33.4985 56.729 33.5745C56.9316 33.6505 57.1216 33.7011 57.299 33.7265C57.3243 33.7265 57.3496 33.7391 57.375 33.7645C57.4003 33.7645 57.4256 33.7645 57.451 33.7645C57.451 33.7645 57.4636 33.7645 57.489 33.7645C57.5143 33.7645 57.5396 33.7645 57.565 33.7645C57.5903 33.7645 57.6156 33.7645 57.641 33.7645C57.6663 33.7645 57.6916 33.7645 57.717 33.7645C57.717 33.7645 57.7296 33.7645 57.755 33.7645C57.7803 33.7645 57.8056 33.7645 57.831 33.7645V34.2965H56.311H47.913V33.6885C48.217 33.7391 48.4956 33.7391 48.749 33.6885C49.0023 33.6125 49.2303 33.4985 49.433 33.3465C49.6356 33.1945 49.7876 33.0045 49.889 32.7765C49.9903 32.5485 50.041 32.2825 50.041 31.9785V18.7545C50.041 18.4251 49.9776 18.1338 49.851 17.8805C49.7243 17.6271 49.547 17.4118 49.319 17.2345C49.0656 17.0825 48.8123 16.9685 48.559 16.8925C48.3056 16.7911 48.0396 16.7278 47.761 16.7025L47.685 16.6645H47.647V16.0565L53.005 15.4485H54.525C54.6516 15.6258 54.753 15.7905 54.829 15.9425C54.9303 16.0945 55.0063 16.2465 55.057 16.3985C55.133 16.5758 55.1836 16.7405 55.209 16.8925C55.2596 17.0445 55.2976 17.1965 55.323 17.3485C55.323 17.3485 55.323 17.3611 55.323 17.3865C55.323 17.3865 55.323 17.3991 55.323 17.4245C55.323 17.4498 55.323 17.4751 55.323 17.5005V17.4625Z" fill="#744E99"/>
<path d="M63.7958 24.7205C63.8718 23.1751 64.1884 21.8071 64.7458 20.6165C65.3284 19.4005 66.1518 18.3745 67.2158 17.5385C68.2798 16.7025 69.3944 16.0691 70.5598 15.6385C71.7251 15.1825 72.9411 14.9418 74.2078 14.9165L75.7278 14.8785H75.8798H76.0698C77.3364 14.9038 78.5524 15.1318 79.7178 15.5625C80.8831 15.9678 81.9851 16.5758 83.0238 17.3865C84.0624 18.1971 84.8604 19.2231 85.4178 20.4645C85.9751 21.7058 86.2664 23.1498 86.2918 24.7965V24.8345V24.8725V24.9485V25.0245C86.2918 26.7218 86.0258 28.2038 85.4938 29.4705C84.9618 30.7118 84.1638 31.7505 83.0998 32.5865C82.0104 33.4225 80.8704 34.0305 79.6798 34.4105C78.4891 34.8158 77.2478 35.0185 75.9558 35.0185H74.4358H74.3218H74.2078C72.8904 34.9931 71.6364 34.7778 70.4458 34.3725C69.2551 33.9671 68.1151 33.3338 67.0258 32.4725C65.9364 31.6111 65.1258 30.5471 64.5938 29.2805C64.0618 27.9885 63.7958 26.4938 63.7958 24.7965V24.7205ZM80.2878 24.4165C80.2118 23.2511 80.0091 22.2378 79.6798 21.3765C79.3504 20.4898 78.8818 19.7551 78.2738 19.1725C77.7418 18.6658 77.1844 18.2605 76.6018 17.9565C76.0444 17.6271 75.4618 17.4118 74.8538 17.3105C74.2711 17.4118 73.7011 17.6018 73.1438 17.8805C72.6118 18.1591 72.0924 18.5391 71.5858 19.0205C70.9778 19.5778 70.5218 20.2871 70.2178 21.1485C69.9391 21.9845 69.7998 22.9598 69.7998 24.0745C69.7998 24.1758 69.7998 24.2771 69.7998 24.3785C69.7998 24.4545 69.7998 24.5305 69.7998 24.6065C69.7998 24.6318 69.7998 24.6698 69.7998 24.7205C69.7998 24.7711 69.7998 24.8091 69.7998 24.8345C69.7998 24.8851 69.7998 24.9358 69.7998 24.9865C69.8251 25.0118 69.8378 25.0498 69.8378 25.1005C69.9644 26.4938 70.2051 27.6971 70.5598 28.7105C70.9398 29.7238 71.4084 30.5345 71.9658 31.1425C72.4471 31.6238 72.9284 32.0165 73.4098 32.3205C73.9164 32.6245 74.4358 32.8145 74.9678 32.8905C75.6011 32.7891 76.1964 32.5865 76.7538 32.2825C77.3364 31.9785 77.8938 31.5478 78.4258 30.9905C79.0844 30.3318 79.5658 29.5718 79.8698 28.7105C80.1991 27.8238 80.3638 26.8358 80.3638 25.7465C80.3638 25.6958 80.3638 25.6451 80.3638 25.5945C80.3638 25.5438 80.3638 25.4931 80.3638 25.4425C80.3384 25.3918 80.3258 25.3411 80.3258 25.2905C80.3258 25.2398 80.3258 25.1891 80.3258 25.1385C80.3258 25.0878 80.3258 25.0371 80.3258 24.9865C80.3258 24.9358 80.3258 24.8725 80.3258 24.7965C80.3004 24.7458 80.2878 24.6951 80.2878 24.6445C80.2878 24.5938 80.2878 24.5431 80.2878 24.4925V24.4165Z" fill="#744E99"/>
<path d="M95.5751 16.0565H98.007C98.0324 16.0818 98.0577 16.0945 98.083 16.0945C98.1084 16.0945 98.1337 16.0818 98.159 16.0565C98.159 16.0565 98.1717 16.0565 98.1971 16.0565C98.2224 16.0565 98.2477 16.0565 98.273 16.0565C98.4757 16.0058 98.7037 15.9425 98.957 15.8665C99.2104 15.7905 99.4764 15.6765 99.7551 15.5245L101.275 15.4865L99.7551 18.4505H98.235C98.159 18.3998 98.083 18.3491 98.007 18.2985C97.9311 18.2478 97.8677 18.2098 97.817 18.1845C97.7411 18.1338 97.6651 18.0958 97.5891 18.0705C97.5131 18.0451 97.437 18.0198 97.361 17.9945C97.209 17.9691 97.0571 17.9565 96.9051 17.9565C96.7531 17.9311 96.6011 17.9185 96.4491 17.9185L95.5751 17.8805V28.5965C95.5751 29.3565 95.6384 30.0025 95.765 30.5345C95.917 31.0411 96.1324 31.4338 96.411 31.7125C96.5884 31.8898 96.7784 32.0418 96.981 32.1685C97.1837 32.2951 97.3864 32.3838 97.5891 32.4345C97.817 32.3838 98.0324 32.3205 98.235 32.2445C98.463 32.1431 98.6784 32.0418 98.8811 31.9405C99.1597 31.7631 99.4004 31.5858 99.6031 31.4085C99.8057 31.2058 99.9577 31.0031 100.059 30.8005L101.579 30.7625L102.149 30.9905L100.667 34.2965C100.236 34.4231 99.8184 34.5245 99.413 34.6005C99.0331 34.6765 98.6657 34.7398 98.3111 34.7905C97.9564 34.8411 97.6144 34.8791 97.285 34.9045C96.9557 34.9551 96.6517 34.9805 96.373 34.9805H94.8531C93.8397 34.9805 92.991 34.8285 92.307 34.5245C91.6484 34.2458 91.1544 33.8151 90.8251 33.2325C90.4957 32.6498 90.2551 31.9785 90.1031 31.2185C89.951 30.4585 89.875 29.6098 89.875 28.6725V17.8425H87.481V17.2345C88.013 17.1838 88.4691 17.0318 88.8491 16.7785C89.229 16.4998 89.5457 16.1451 89.799 15.7145C90.0524 15.2838 90.2551 14.8405 90.4071 14.3845C90.5591 13.9031 90.6477 13.4218 90.673 12.9405V12.6745C90.673 12.6745 90.673 12.6618 90.673 12.6365C90.673 12.6111 90.673 12.5858 90.673 12.5605C90.673 12.5605 90.673 12.5478 90.673 12.5225C90.673 12.4971 90.673 12.4718 90.673 12.4465C90.673 12.4211 90.673 12.3958 90.673 12.3705C90.673 12.3451 90.673 12.3198 90.673 12.2945C90.673 12.2945 90.673 12.2818 90.673 12.2565C90.673 12.2311 90.673 12.2058 90.673 12.1805C90.673 12.1551 90.673 12.1298 90.673 12.1045C90.673 12.0791 90.673 12.0538 90.673 12.0285C90.6477 12.0031 90.635 11.9778 90.635 11.9525C90.635 11.9271 90.635 11.9018 90.635 11.8765C90.635 11.8258 90.635 11.7751 90.635 11.7245C90.635 11.6738 90.635 11.6231 90.635 11.5725C90.6097 11.5471 90.597 11.5091 90.597 11.4585C90.597 11.4078 90.597 11.3571 90.597 11.3065C90.5717 11.2051 90.5464 11.1165 90.521 11.0405C90.521 10.9391 90.5084 10.8378 90.483 10.7365L94.055 8.87448H95.5751V16.0565Z" fill="#744E99"/>
<path d="M118.389 9.17848H127.661V9.74848C127.205 9.79915 126.825 9.88781 126.521 10.0145C126.217 10.1411 125.977 10.3438 125.799 10.6225C125.622 10.8758 125.483 11.1671 125.381 11.4965C125.305 11.8258 125.267 12.1678 125.267 12.5225V30.7245C125.267 31.2058 125.331 31.6365 125.457 32.0165C125.609 32.3711 125.812 32.6878 126.065 32.9665C126.344 33.2198 126.635 33.4225 126.939 33.5745C127.243 33.7011 127.585 33.7645 127.965 33.7645V34.2965H126.445H116.869V33.6885C117.325 33.7391 117.705 33.7011 118.009 33.5745C118.313 33.4225 118.554 33.2198 118.731 32.9665C118.909 32.6878 119.035 32.3711 119.111 32.0165C119.213 31.6618 119.263 31.2565 119.263 30.8005V12.7505C119.263 12.3451 119.2 11.9651 119.073 11.6105C118.972 11.2558 118.82 10.9391 118.617 10.6605C118.415 10.3818 118.161 10.1791 117.857 10.0525C117.579 9.90048 117.249 9.82448 116.869 9.82448V9.17848H118.389Z" fill="#744E99"/>
<path d="M137.711 18.0705C138.192 17.6651 138.661 17.2978 139.117 16.9685C139.598 16.6138 140.08 16.3225 140.561 16.0945C141.22 15.7398 141.853 15.4865 142.461 15.3345C143.069 15.1571 143.652 15.0558 144.209 15.0305L145.729 14.9925C146.362 15.0178 146.932 15.1318 147.439 15.3345C147.971 15.5371 148.44 15.8538 148.845 16.2845C149.124 16.5885 149.364 16.9305 149.567 17.3105C149.77 17.6651 149.922 18.0705 150.023 18.5265C150.58 18.0958 151.112 17.7158 151.619 17.3865C152.151 17.0318 152.658 16.7278 153.139 16.4745C153.823 16.1451 154.469 15.9045 155.077 15.7525C155.71 15.5751 156.293 15.4865 156.825 15.4865L158.345 15.4485C159.029 15.4738 159.637 15.6005 160.169 15.8285C160.701 16.0565 161.157 16.4111 161.537 16.8925C161.917 17.3738 162.208 17.9311 162.411 18.5645C162.614 19.1725 162.715 19.8565 162.715 20.6165V31.2945C162.715 31.7758 162.766 32.1811 162.867 32.5105C162.994 32.8145 163.184 33.0551 163.437 33.2325C163.665 33.4098 163.906 33.5491 164.159 33.6505C164.438 33.7265 164.716 33.7645 164.995 33.7645L165.033 33.7265H165.109V34.2965H163.589H154.925V33.6885C155.28 33.7391 155.596 33.7391 155.875 33.6885C156.179 33.6125 156.445 33.4985 156.673 33.3465C156.876 33.2198 157.028 32.9918 157.129 32.6625C157.256 32.3331 157.319 31.9025 157.319 31.3705V22.0225C157.319 21.3891 157.256 20.8445 157.129 20.3885C157.002 19.9071 156.8 19.5271 156.521 19.2485C156.344 19.0458 156.154 18.8938 155.951 18.7925C155.748 18.6658 155.533 18.5645 155.305 18.4885C155.28 18.4885 155.242 18.5011 155.191 18.5265C155.166 18.5265 155.128 18.5391 155.077 18.5645C155.001 18.5898 154.925 18.6151 154.849 18.6405C154.773 18.6405 154.697 18.6658 154.621 18.7165C154.165 18.8938 153.722 19.1218 153.291 19.4005C152.886 19.6538 152.493 19.9705 152.113 20.3505C151.733 20.7305 151.416 21.1231 151.163 21.5285C150.91 21.9085 150.72 22.3138 150.593 22.7445C150.568 22.8205 150.542 22.8965 150.517 22.9725C150.517 23.0485 150.517 23.1245 150.517 23.2005C150.517 23.2258 150.504 23.2638 150.479 23.3145C150.479 23.3398 150.479 23.3651 150.479 23.3905C150.479 23.4411 150.479 23.4791 150.479 23.5045C150.479 23.5298 150.479 23.5678 150.479 23.6185V31.2945C150.479 31.8518 150.53 32.3078 150.631 32.6625C150.758 32.9918 150.948 33.2198 151.201 33.3465C151.454 33.4985 151.72 33.6125 151.999 33.6885C152.278 33.7391 152.569 33.7645 152.873 33.7645V34.2965H151.353H142.651V33.6885C142.955 33.7391 143.234 33.7265 143.487 33.6505C143.74 33.5745 143.956 33.4478 144.133 33.2705C144.336 33.0931 144.488 32.8525 144.589 32.5485C144.69 32.2191 144.741 31.8265 144.741 31.3705V22.0225C144.741 21.3638 144.678 20.7938 144.551 20.3125C144.424 19.8058 144.222 19.4005 143.943 19.0965C143.766 18.8938 143.563 18.7291 143.335 18.6025C143.132 18.4505 142.904 18.3365 142.651 18.2605C142.55 18.2858 142.448 18.3111 142.347 18.3365C142.271 18.3365 142.182 18.3618 142.081 18.4125C141.625 18.5898 141.182 18.8305 140.751 19.1345C140.32 19.4131 139.902 19.7425 139.497 20.1225C139.092 20.5025 138.762 20.9078 138.509 21.3385C138.281 21.7438 138.104 22.1618 137.977 22.5925C137.952 22.6431 137.926 22.7065 137.901 22.7825C137.901 22.8331 137.901 22.8838 137.901 22.9345C137.901 23.0105 137.901 23.0865 137.901 23.1625C137.901 23.2131 137.901 23.2638 137.901 23.3145V31.5985C137.901 32.0291 137.952 32.3838 138.053 32.6625C138.154 32.9411 138.294 33.1565 138.471 33.3085C138.674 33.4605 138.902 33.5745 139.155 33.6505C139.408 33.7265 139.687 33.7645 139.991 33.7645V34.2965H138.471H130.073V33.6885C130.453 33.7391 130.77 33.7265 131.023 33.6505C131.302 33.5745 131.53 33.4478 131.707 33.2705C131.859 33.0931 131.973 32.8525 132.049 32.5485C132.15 32.2191 132.201 31.8265 132.201 31.3705V19.9325C132.201 19.4511 132.15 19.0205 132.049 18.6405C131.973 18.2605 131.859 17.9565 131.707 17.7285C131.555 17.5005 131.39 17.3231 131.213 17.1965C131.061 17.0445 130.896 16.9305 130.719 16.8545C130.618 16.8038 130.529 16.7785 130.453 16.7785C130.377 16.7531 130.301 16.7405 130.225 16.7405C130.2 16.7405 130.162 16.7405 130.111 16.7405C130.086 16.7405 130.048 16.7278 129.997 16.7025C129.972 16.7025 129.934 16.7025 129.883 16.7025C129.858 16.7025 129.832 16.7025 129.807 16.7025V16.0565L135.165 15.4485H136.685C136.736 15.5498 136.774 15.6511 136.799 15.7525C136.85 15.8285 136.9 15.9045 136.951 15.9805C136.976 16.0818 137.014 16.1831 137.065 16.2845C137.116 16.3605 137.154 16.4491 137.179 16.5505C137.23 16.6518 137.268 16.7531 137.293 16.8545C137.344 16.9558 137.382 17.0445 137.407 17.1205C137.458 17.2218 137.496 17.3231 137.521 17.4245C137.572 17.5258 137.61 17.6271 137.635 17.7285C137.635 17.7538 137.635 17.7918 137.635 17.8425C137.66 17.8678 137.673 17.8931 137.673 17.9185C137.673 17.9438 137.673 17.9818 137.673 18.0325C137.698 18.0578 137.711 18.0831 137.711 18.1085V18.0705Z" fill="#744E99"/>
<path d="M175.01 34.2965V39.3885V39.4265V39.5025C175.01 39.7811 175.048 40.0471 175.124 40.3005C175.226 40.5538 175.365 40.8071 175.542 41.0605C175.694 41.2885 175.897 41.4658 176.15 41.5925C176.429 41.7192 176.746 41.7825 177.1 41.7825V42.3905H175.58H166.916V41.7825H166.954H167.03C167.309 41.7571 167.575 41.6938 167.828 41.5925C168.082 41.5165 168.335 41.3898 168.588 41.2125C168.816 41.0351 168.994 40.7945 169.12 40.4905C169.247 40.1865 169.31 39.8191 169.31 39.3885V19.9325C169.31 19.1471 169.26 18.5138 169.158 18.0325C169.082 17.5258 168.956 17.1711 168.778 16.9685C168.601 16.7658 168.36 16.6011 168.056 16.4745C167.778 16.3225 167.423 16.2085 166.992 16.1325L166.916 16.0945V15.4485H168.436H179.798C181.445 15.4991 182.889 15.7778 184.13 16.2845C185.397 16.7658 186.474 17.5005 187.36 18.4885C188.247 19.4765 188.918 20.5025 189.374 21.5665C189.856 22.6305 190.109 23.7578 190.134 24.9485V25.1005V25.2525C190.134 26.4431 189.919 27.5831 189.488 28.6725C189.083 29.7365 188.437 30.7498 187.55 31.7125C186.689 32.6498 185.587 33.3591 184.244 33.8405C182.902 34.2965 181.331 34.5245 179.532 34.5245H178.012C177.683 34.5245 177.328 34.5118 176.948 34.4865C176.594 34.4865 176.226 34.4611 175.846 34.4105C175.77 34.4105 175.694 34.3978 175.618 34.3725C175.568 34.3725 175.504 34.3725 175.428 34.3725C175.352 34.3471 175.276 34.3218 175.2 34.2965C175.15 34.2965 175.086 34.2965 175.01 34.2965ZM174.706 17.2345V30.1165C174.706 30.5471 174.795 30.9145 174.972 31.2185C175.15 31.4972 175.403 31.7378 175.732 31.9405C176.011 32.0925 176.302 32.2191 176.606 32.3205C176.91 32.3965 177.227 32.4598 177.556 32.5105C177.582 32.5105 177.594 32.5105 177.594 32.5105C177.62 32.5105 177.632 32.5105 177.632 32.5105C177.784 32.4851 177.936 32.4598 178.088 32.4345C178.24 32.3838 178.405 32.3458 178.582 32.3205C179.216 32.1685 179.824 31.9278 180.406 31.5985C180.989 31.2691 181.559 30.8638 182.116 30.3825C182.648 29.8758 183.066 29.2805 183.37 28.5965C183.674 27.9125 183.864 27.1398 183.94 26.2785V26.0885L183.978 25.8985V25.7465V25.5565C183.978 24.3405 183.801 23.2385 183.446 22.2505C183.117 21.2371 182.623 20.3505 181.964 19.5905C181.28 18.8305 180.558 18.2605 179.798 17.8805C179.038 17.5005 178.228 17.3105 177.366 17.3105L174.706 17.2345Z" fill="#744E99"/>
<path d="M207.094 32.0925C206.916 32.2445 206.739 32.3838 206.562 32.5105C206.41 32.6118 206.245 32.7258 206.068 32.8525C205.586 33.1565 205.105 33.4351 204.624 33.6885C204.168 33.9165 203.686 34.1065 203.18 34.2585C202.926 34.3091 202.673 34.3598 202.42 34.4105C202.192 34.4865 201.964 34.5498 201.736 34.6005C201.508 34.6511 201.28 34.6891 201.052 34.7145C200.824 34.7398 200.596 34.7525 200.368 34.7525H198.848C198.214 34.7525 197.632 34.6511 197.1 34.4485C196.593 34.2711 196.124 34.0051 195.694 33.6505C195.288 33.2705 194.972 32.7385 194.744 32.0545C194.541 31.3705 194.44 30.5471 194.44 29.5845V19.3245C194.44 18.9191 194.389 18.5645 194.288 18.2605C194.212 17.9565 194.098 17.7158 193.946 17.5385C193.768 17.3358 193.591 17.1711 193.414 17.0445C193.262 16.9178 193.084 16.8291 192.882 16.7785C192.856 16.7785 192.831 16.7785 192.806 16.7785C192.78 16.7785 192.755 16.7658 192.73 16.7405C192.704 16.7405 192.679 16.7405 192.654 16.7405C192.628 16.7405 192.603 16.7405 192.578 16.7405L192.35 16.6645V16.0565L198.658 15.4485H200.178V27.7225C200.178 28.5331 200.241 29.2171 200.368 29.7745C200.494 30.3065 200.684 30.7245 200.938 31.0285C201.115 31.2311 201.305 31.4085 201.508 31.5605C201.71 31.6871 201.926 31.7758 202.154 31.8265C202.255 31.8011 202.369 31.7758 202.496 31.7505C202.622 31.6998 202.749 31.6491 202.876 31.5985C203.332 31.3958 203.762 31.1298 204.168 30.8005C204.598 30.4711 205.016 30.0785 205.422 29.6225C205.827 29.1665 206.156 28.6978 206.41 28.2165C206.663 27.7351 206.84 27.2538 206.942 26.7725C206.942 26.7471 206.942 26.7218 206.942 26.6965C206.942 26.6711 206.954 26.6331 206.98 26.5825C206.98 26.5571 206.98 26.5318 206.98 26.5065C206.98 26.4558 206.98 26.4178 206.98 26.3925C206.98 26.3671 206.98 26.3418 206.98 26.3165C206.98 26.2911 206.992 26.2531 207.018 26.2025C207.018 26.1771 207.018 26.1518 207.018 26.1265C207.018 26.0758 207.018 26.0378 207.018 26.0125V18.7545C207.018 18.5011 206.967 18.2605 206.866 18.0325C206.79 17.8045 206.676 17.6018 206.524 17.4245C206.346 17.2471 206.169 17.1078 205.992 17.0065C205.84 16.8798 205.662 16.8038 205.46 16.7785C205.434 16.7785 205.409 16.7785 205.384 16.7785C205.358 16.7785 205.333 16.7658 205.308 16.7405C205.282 16.7405 205.257 16.7405 205.232 16.7405C205.206 16.7405 205.181 16.7405 205.156 16.7405L204.928 16.6645V16.0565L211.198 15.4485H212.718V31.2945C212.718 31.7251 212.756 32.0925 212.832 32.3965C212.908 32.7005 213.034 32.9538 213.212 33.1565C213.364 33.3591 213.579 33.5111 213.858 33.6125C214.136 33.7138 214.466 33.7645 214.846 33.7645V34.2965H213.326H207.626C207.6 34.2458 207.575 34.1825 207.55 34.1065C207.524 34.0305 207.499 33.9418 207.474 33.8405C207.448 33.7645 207.423 33.6885 207.398 33.6125C207.372 33.5111 207.36 33.4098 207.36 33.3085C207.309 33.1058 207.258 32.9158 207.208 32.7385C207.182 32.5358 207.144 32.3458 207.094 32.1685C207.094 32.1685 207.094 32.1558 207.094 32.1305V32.0925Z" fill="#744E99"/>
<path d="M216.643 9.17848L223.217 8.26648H224.737V31.2945C224.737 31.7758 224.788 32.1685 224.889 32.4725C224.99 32.7765 225.13 32.9918 225.307 33.1185C225.51 33.2705 225.725 33.3971 225.953 33.4985C226.181 33.5998 226.447 33.6758 226.751 33.7265H226.827V34.2965H225.307H216.909V33.6885H218.429L218.467 33.7265H216.947L216.985 33.6885C217.264 33.6631 217.53 33.5998 217.783 33.4985C218.036 33.3971 218.252 33.2705 218.429 33.1185C218.632 32.9918 218.784 32.7892 218.885 32.5105C218.986 32.2065 219.037 31.8265 219.037 31.3705V11.8385C219.037 11.5091 218.974 11.2305 218.847 11.0025C218.72 10.7491 218.543 10.5338 218.315 10.3565C218.062 10.2045 217.808 10.0905 217.555 10.0145C217.302 9.91315 217.036 9.84981 216.757 9.82448L216.681 9.78648H216.643V9.17848Z" fill="#744E99"/>
<path d="M245.12 15.4485L245.424 21.4145L244.816 21.7185H243.296V21.6425V21.5285C243.296 20.9458 243.17 20.4265 242.916 19.9705C242.688 19.4891 242.321 19.0838 241.814 18.7545C241.308 18.3998 240.776 18.1085 240.218 17.8805C239.661 17.6525 239.091 17.4751 238.508 17.3485C238.331 17.2978 238.154 17.2725 237.976 17.2725C237.799 17.2471 237.622 17.2218 237.444 17.1965C237.419 17.1965 237.394 17.1965 237.368 17.1965C237.343 17.1965 237.33 17.1965 237.33 17.1965C237.305 17.1965 237.28 17.1965 237.254 17.1965C237.229 17.1711 237.204 17.1585 237.178 17.1585C237.077 17.1838 236.963 17.2091 236.836 17.2345C236.735 17.2345 236.634 17.2471 236.532 17.2725C236.33 17.2978 236.14 17.3485 235.962 17.4245C235.811 17.4751 235.671 17.5385 235.544 17.6145C235.443 17.6905 235.354 17.7791 235.278 17.8805C235.202 17.9565 235.139 18.0578 235.088 18.1845C235.038 18.2858 235 18.3998 234.974 18.5265C234.949 18.6278 234.936 18.7418 234.936 18.8685C234.936 18.8938 234.936 18.9318 234.936 18.9825C234.936 19.0078 234.936 19.0331 234.936 19.0585C234.936 19.1091 234.936 19.1471 234.936 19.1725C234.962 19.1978 234.974 19.2358 234.974 19.2865C234.974 19.3625 234.987 19.4385 235.012 19.5145C235.038 19.5651 235.063 19.6158 235.088 19.6665C235.164 19.8945 235.291 20.1098 235.468 20.3125C235.646 20.4898 235.861 20.6798 236.114 20.8825C236.368 21.0598 236.672 21.2245 237.026 21.3765C237.381 21.5285 237.786 21.6678 238.242 21.7945C239.661 22.1238 240.902 22.5038 241.966 22.9345C243.056 23.3398 243.993 23.7958 244.778 24.3025C245.564 24.7838 246.146 25.3411 246.526 25.9745C246.932 26.6078 247.134 27.3171 247.134 28.1025C247.134 28.3558 247.109 28.6345 247.058 28.9385C247.008 29.2171 246.944 29.5085 246.868 29.8125C246.767 30.1165 246.653 30.4205 246.526 30.7245C246.4 31.0285 246.235 31.3451 246.032 31.6745C245.728 32.2318 245.336 32.7132 244.854 33.1185C244.398 33.4985 243.841 33.8151 243.182 34.0685C242.524 34.2711 241.827 34.4358 241.092 34.5625C240.383 34.6891 239.623 34.7525 238.812 34.7525H237.292C237.216 34.7525 237.128 34.7525 237.026 34.7525C236.95 34.7525 236.874 34.7525 236.798 34.7525C236.697 34.7271 236.596 34.7145 236.494 34.7145C236.418 34.7145 236.342 34.7145 236.266 34.7145C236.089 34.6891 235.912 34.6638 235.734 34.6385C235.582 34.6385 235.43 34.6385 235.278 34.6385C235.152 34.6131 235.012 34.5878 234.86 34.5625C234.734 34.5371 234.607 34.5245 234.48 34.5245C234.354 34.4991 234.227 34.4738 234.1 34.4485C233.974 34.4231 233.847 34.3978 233.72 34.3725C233.467 34.3471 233.214 34.3091 232.96 34.2585C232.707 34.2078 232.466 34.1445 232.238 34.0685C232.112 34.0178 231.972 33.9798 231.82 33.9545C231.668 33.9038 231.516 33.8658 231.364 33.8405C231.339 33.8405 231.314 33.8405 231.288 33.8405C231.288 33.8405 231.276 33.8278 231.25 33.8025C231.225 33.8025 231.2 33.8025 231.174 33.8025C231.174 33.8025 231.162 33.8025 231.136 33.8025C231.111 33.8025 231.098 33.8025 231.098 33.8025C230.997 33.8278 230.883 33.8658 230.756 33.9165C230.655 33.9671 230.554 34.0178 230.452 34.0685L228.932 34.0305L228.666 26.5065L229.236 26.2025H230.756C230.807 27.2411 231.01 28.1531 231.364 28.9385C231.719 29.6985 232.226 30.3318 232.884 30.8385C233.543 31.3451 234.227 31.7505 234.936 32.0545C235.671 32.3585 236.431 32.5485 237.216 32.6245C237.242 32.6245 237.254 32.6245 237.254 32.6245C237.28 32.6245 237.305 32.6245 237.33 32.6245C237.356 32.6498 237.368 32.6625 237.368 32.6625C237.394 32.6625 237.419 32.6625 237.444 32.6625C237.52 32.6625 237.596 32.6625 237.672 32.6625C237.774 32.6371 237.862 32.6245 237.938 32.6245C238.014 32.5991 238.09 32.5865 238.166 32.5865C238.268 32.5611 238.356 32.5358 238.432 32.5105C238.711 32.4598 238.977 32.3838 239.23 32.2825C239.509 32.1811 239.775 32.0798 240.028 31.9785C240.282 31.8518 240.497 31.7125 240.674 31.5605C240.877 31.3831 241.029 31.2058 241.13 31.0285C241.257 30.8258 241.346 30.6231 241.396 30.4205C241.447 30.2178 241.472 30.0025 241.472 29.7745C241.472 29.7491 241.472 29.7238 241.472 29.6985C241.472 29.6731 241.472 29.6478 241.472 29.6225C241.447 29.6225 241.434 29.6098 241.434 29.5845C241.434 29.5591 241.434 29.5338 241.434 29.5085C241.434 29.4831 241.434 29.4578 241.434 29.4325C241.434 29.4071 241.434 29.3818 241.434 29.3565C241.409 29.3311 241.396 29.3058 241.396 29.2805C241.396 29.2551 241.396 29.2298 241.396 29.2045C241.32 28.9258 241.206 28.6725 241.054 28.4445C240.902 28.1911 240.712 27.9378 240.484 27.6845C240.231 27.4311 239.94 27.2158 239.61 27.0385C239.306 26.8358 238.939 26.6838 238.508 26.5825C237.166 26.3038 235.937 25.9871 234.822 25.6325C233.733 25.2525 232.745 24.8471 231.858 24.4165C230.997 23.9858 230.338 23.4031 229.882 22.6685C229.452 21.9338 229.236 21.0471 229.236 20.0085C229.236 19.3751 229.388 18.7798 229.692 18.2225C229.996 17.6398 230.452 17.0825 231.06 16.5505C231.668 16.0185 232.403 15.6258 233.264 15.3725C234.151 15.0938 235.139 14.9545 236.228 14.9545L237.748 14.9165C237.951 14.9418 238.154 14.9671 238.356 14.9925C238.559 14.9925 238.774 15.0051 239.002 15.0305C239.205 15.0558 239.42 15.0811 239.648 15.1065C239.876 15.1318 240.104 15.1698 240.332 15.2205C240.484 15.2458 240.636 15.2711 240.788 15.2965C240.94 15.2965 241.092 15.3218 241.244 15.3725C241.32 15.3978 241.396 15.4231 241.472 15.4485C241.548 15.4485 241.624 15.4485 241.7 15.4485C241.751 15.4738 241.814 15.4991 241.89 15.5245C241.966 15.5245 242.042 15.5245 242.118 15.5245C242.321 15.5751 242.524 15.6258 242.726 15.6765C242.954 15.7018 243.157 15.7398 243.334 15.7905C243.334 15.7905 243.347 15.7905 243.372 15.7905C243.423 15.7651 243.448 15.7398 243.448 15.7145C243.474 15.6891 243.499 15.6638 243.524 15.6385C243.55 15.6131 243.562 15.6005 243.562 15.6005C243.588 15.5751 243.6 15.5498 243.6 15.5245V15.4485H245.12Z" fill="#744E99"/>
<path d="M249.306 24.7205C249.382 23.1751 249.698 21.8071 250.256 20.6165C250.838 19.4005 251.662 18.3745 252.726 17.5385C253.79 16.7025 254.904 16.0691 256.07 15.6385C257.235 15.1825 258.451 14.9418 259.718 14.9165L261.238 14.8785H261.39H261.58C262.846 14.9038 264.062 15.1318 265.228 15.5625C266.393 15.9678 267.495 16.5758 268.534 17.3865C269.572 18.1971 270.37 19.2231 270.928 20.4645C271.485 21.7058 271.776 23.1498 271.802 24.7965V24.8345V24.8725V24.9485V25.0245C271.802 26.7218 271.536 28.2038 271.004 29.4705C270.472 30.7118 269.674 31.7505 268.61 32.5865C267.52 33.4225 266.38 34.0305 265.19 34.4105C263.999 34.8158 262.758 35.0185 261.466 35.0185H259.946H259.832H259.718C258.4 34.9931 257.146 34.7778 255.956 34.3725C254.765 33.9671 253.625 33.3338 252.536 32.4725C251.446 31.6111 250.636 30.5471 250.104 29.2805C249.572 27.9885 249.306 26.4938 249.306 24.7965V24.7205ZM265.798 24.4165C265.722 23.2511 265.519 22.2378 265.19 21.3765C264.86 20.4898 264.392 19.7551 263.784 19.1725C263.252 18.6658 262.694 18.2605 262.112 17.9565C261.554 17.6271 260.972 17.4118 260.364 17.3105C259.781 17.4118 259.211 17.6018 258.654 17.8805C258.122 18.1591 257.602 18.5391 257.096 19.0205C256.488 19.5778 256.032 20.2871 255.728 21.1485C255.449 21.9845 255.31 22.9598 255.31 24.0745C255.31 24.1758 255.31 24.2771 255.31 24.3785C255.31 24.4545 255.31 24.5305 255.31 24.6065C255.31 24.6318 255.31 24.6698 255.31 24.7205C255.31 24.7711 255.31 24.8091 255.31 24.8345C255.31 24.8851 255.31 24.9358 255.31 24.9865C255.335 25.0118 255.348 25.0498 255.348 25.1005C255.474 26.4938 255.715 27.6971 256.07 28.7105C256.45 29.7238 256.918 30.5345 257.476 31.1425C257.957 31.6238 258.438 32.0165 258.92 32.3205C259.426 32.6245 259.946 32.8145 260.478 32.8905C261.111 32.7891 261.706 32.5865 262.264 32.2825C262.846 31.9785 263.404 31.5478 263.936 30.9905C264.594 30.3318 265.076 29.5718 265.38 28.7105C265.709 27.8238 265.874 26.8358 265.874 25.7465C265.874 25.6958 265.874 25.6451 265.874 25.5945C265.874 25.5438 265.874 25.4931 265.874 25.4425C265.848 25.3918 265.836 25.3411 265.836 25.2905C265.836 25.2398 265.836 25.1891 265.836 25.1385C265.836 25.0878 265.836 25.0371 265.836 24.9865C265.836 24.9358 265.836 24.8725 265.836 24.7965C265.81 24.7458 265.798 24.6951 265.798 24.6445C265.798 24.5938 265.798 24.5431 265.798 24.4925V24.4165Z" fill="#744E99"/>
</svg>
