<svg width="20" height="20" viewBox="0 0 20 20" fill="none" xmlns="http://www.w3.org/2000/svg">
<path fill-rule="evenodd" clip-rule="evenodd" d="M17.1548 19.5119C17.8057 20.1627 18.861 20.1627 19.5119 19.5119C20.1628 18.861 20.1628 17.8057 19.5119 17.1548L12.3571 10L19.5119 2.84519C20.1628 2.19431 20.1628 1.13904 19.5119 0.488161C18.861 -0.162714 17.8057 -0.162714 17.1549 0.488161L10 7.643L2.84518 0.488156C2.19431 -0.162719 1.13903 -0.162719 0.488157 0.488156C-0.162719 1.13903 -0.162719 2.19431 0.488157 2.84518L7.643 10L0.48818 17.1549C-0.162695 17.8057 -0.162695 18.861 0.48818 19.5119C1.13905 20.1628 2.19433 20.1628 2.84521 19.5119L10 12.3571L17.1548 19.5119Z" fill="#744E99"/>
</svg>
